<svg width="55" height="56" viewBox="0 0 55 56" fill="none" xmlns="http://www.w3.org/2000/svg">
<path opacity="0.2" fill-rule="evenodd" clip-rule="evenodd" d="M19.9223 44.1049C21.8188 45.9034 23.9025 47.7428 26.1732 49.6233C27.242 50.4954 28.8451 50.4954 29.9139 49.6233C32.1636 47.7564 34.2297 45.93 36.1119 44.1439C40.2229 45.214 42.9412 47.0682 42.9412 49.1764C42.9412 52.4902 36.2254 55.1764 27.9412 55.1764C19.6569 55.1764 12.9412 52.4902 12.9412 49.1764C12.9412 47.0424 15.7265 45.1685 19.9223 44.1049Z" fill="#FF3347"/>
<path fill-rule="evenodd" clip-rule="evenodd" d="M23.164 47.0075C24.1456 47.8705 25.1684 48.7424 26.2321 49.6234C27.3009 50.4954 28.904 50.4954 29.9728 49.6234C31.0111 48.7617 32.0104 47.9086 32.9705 47.0641C34.2251 47.6063 35 48.3526 35 49.1765C35 50.8333 31.866 52.1765 28 52.1765C24.134 52.1765 21 50.8333 21 49.1765C21 48.3235 21.8306 47.5537 23.164 47.0075Z" fill="#FF3347"/>
<path d="M28 0.138672C17.5 0.138672 8 7.99333 8 20.1412C8 27.8983 14.125 37.0214 26.35 47.5349C27.3 48.3399 28.725 48.3399 29.675 47.5349C41.875 37.0214 48 27.8983 48 20.1412C48 7.99333 38.5 0.138672 28 0.138672ZM28 24.532C25.25 24.532 23 22.3366 23 19.6533C23 16.9701 25.25 14.7747 28 14.7747C30.75 14.7747 33 16.9701 33 19.6533C33 22.3366 30.75 24.532 28 24.532Z" fill="#FF3347"/>
</svg>
