<svg width="24" height="24" viewBox="0 0 24 24" fill="none" xmlns="http://www.w3.org/2000/svg">
<path fill-rule="evenodd" clip-rule="evenodd" d="M7.48662 21.4999H15.8345C18.9008 21.4999 21.2532 20.3924 20.585 15.9347L19.807 9.89351C19.3951 7.66925 17.9763 6.81799 16.7315 6.81799H6.55299C5.28983 6.81799 3.95344 7.73332 3.47747 9.89351L2.69944 15.9347C2.13193 19.8889 4.42026 21.4999 7.48662 21.4999Z" stroke="currentColor" stroke-width="1.5" stroke-linecap="round" stroke-linejoin="round"/>
<path d="M7.34975 6.59836C7.34975 4.21229 9.28404 2.27799 11.6701 2.27799V2.27799C12.8191 2.27312 13.9227 2.72615 14.7369 3.53691C15.5511 4.34766 16.0088 5.44935 16.0088 6.59836V6.59836" stroke="currentColor" stroke-width="1.5" stroke-linecap="round" stroke-linejoin="round"/>
<path d="M8.70402 11.1018H8.74979" stroke="currentColor" stroke-width="1.5" stroke-linecap="round" stroke-linejoin="round"/>
<path d="M14.5351 11.1018H14.5808" stroke="currentColor" stroke-width="1.5" stroke-linecap="round" stroke-linejoin="round"/>
</svg>
