<svg
	xmlns="http://www.w3.org/2000/svg"
	width="21"
	height="21"
	viewBox="0 0 21 21"
	fill="none"
>
	<path
		d="M1.81818 1.90918L3.50043 13.8251C3.63974 14.8119 4.48424 15.5455 5.48079 15.5455H19.0909"
		stroke="currentColor"
		stroke-width="2"
		stroke-linecap="round"
	/>
	<mask
		id="path-2-inside-1_3929_84816"
		fill="white"
	>
		<ellipse
			cx="6.36365"
			cy="19.1817"
			rx="1.81818"
			ry="1.81818"
		/>
	</mask>
	<ellipse
		cx="6.36365"
		cy="19.1817"
		rx="1.81818"
		ry="1.81818"
		fill="currentColor"
	/>
	<path
		d="M6.18183 19.1817C6.18183 19.0813 6.26324 18.9999 6.36365 18.9999V22.9999C8.47238 22.9999 10.1818 21.2904 10.1818 19.1817H6.18183ZM6.36365 18.9999C6.46407 18.9999 6.54547 19.0813 6.54547 19.1817H2.54547C2.54547 21.2904 4.25493 22.9999 6.36365 22.9999V18.9999ZM6.54547 19.1817C6.54547 19.2821 6.46407 19.3635 6.36365 19.3635V15.3635C4.25493 15.3635 2.54547 17.073 2.54547 19.1817H6.54547ZM6.36365 19.3635C6.26324 19.3635 6.18183 19.2821 6.18183 19.1817H10.1818C10.1818 17.073 8.47238 15.3635 6.36365 15.3635V19.3635Z"
		fill="currentColor"
		mask="url(#path-2-inside-1_3929_84816)"
	/>
	<mask
		id="path-4-inside-2_3929_84816"
		fill="white"
	>
		<ellipse
			cx="16.3637"
			cy="19.1817"
			rx="1.81818"
			ry="1.81818"
		/>
	</mask>
	<ellipse
		cx="16.3637"
		cy="19.1817"
		rx="1.81818"
		ry="1.81818"
		fill="currentColor"
	/>
	<path
		d="M16.1818 19.1817C16.1818 19.0813 16.2632 18.9999 16.3637 18.9999V22.9999C18.4724 22.9999 20.1818 21.2904 20.1818 19.1817H16.1818ZM16.3637 18.9999C16.4641 18.9999 16.5455 19.0813 16.5455 19.1817H12.5455C12.5455 21.2904 14.2549 22.9999 16.3637 22.9999V18.9999ZM16.5455 19.1817C16.5455 19.2821 16.4641 19.3635 16.3637 19.3635V15.3635C14.2549 15.3635 12.5455 17.073 12.5455 19.1817H16.5455ZM16.3637 19.3635C16.2632 19.3635 16.1818 19.2821 16.1818 19.1817H20.1818C20.1818 17.073 18.4724 15.3635 16.3637 15.3635V19.3635Z"
		fill="currentColor"
		mask="url(#path-4-inside-2_3929_84816)"
	/>
	<path
		d="M18.3063 6.76278L4.54547 3.72729L5.51517 12.8182H17.0909C18.1955 12.8182 19.0909 11.9228 19.0909 10.8182V7.7393C19.0909 7.27002 18.7646 6.86387 18.3063 6.76278Z"
		fill="currentColor"
	/>
</svg>
