<svg width="20" height="20" viewBox="0 0 20 20" fill="none" xmlns="http://www.w3.org/2000/svg">
<path fill-rule="evenodd" clip-rule="evenodd" d="M1.42857 0C0.639593 0 0 0.639594 0 1.42857V18.5714C0 19.3604 0.639594 20 1.42857 20H18.5714C19.3604 20 20 19.3604 20 18.5714V1.42857C20 0.639593 19.3604 0 18.5714 0H1.42857ZM18.5714 5.71429H1.42857V17.1429H18.5714V5.71429Z" fill="currentColor"/>
<path fill-rule="evenodd" clip-rule="evenodd" d="M1.42857 5.71429V17.1429H18.5714V5.71429H1.42857ZM17.8571 3.57143H2.14286V2.14286H17.8571V3.57143ZM20 1.42857C20 0.639593 19.3604 0 18.5714 0H1.42857C0.639593 0 0 0.639594 0 1.42857V18.5714C0 18.8316 0.0695675 19.0756 0.191118 19.2857C0.438125 19.7127 0.899799 20 1.42857 20H18.5714C19.1002 20 19.5619 19.7127 19.8089 19.2857C19.9304 19.0756 20 18.8316 20 18.5714V1.42857Z" fill="currentColor"/>
<path d="M2.85715 10.0001C2.85715 9.21113 3.49674 8.57153 4.28572 8.57153C5.0747 8.57153 5.71429 9.21113 5.71429 10.0001C5.71429 10.7891 5.0747 11.4287 4.28572 11.4287C3.49674 11.4287 2.85715 10.7891 2.85715 10.0001Z" fill="currentColor"/>
<path d="M8.57144 10.0001C8.57144 9.21113 9.21104 8.57153 10 8.57153C10.789 8.57153 11.4286 9.21113 11.4286 10.0001C11.4286 10.7891 10.789 11.4287 10 11.4287C9.21104 11.4287 8.57144 10.7891 8.57144 10.0001Z" fill="currentColor"/>
<path d="M14.2857 10.0001C14.2857 9.21113 14.9253 8.57153 15.7143 8.57153C16.5033 8.57153 17.1428 9.21113 17.1428 10.0001C17.1428 10.7891 16.5033 11.4287 15.7143 11.4287C14.9253 11.4287 14.2857 10.7891 14.2857 10.0001Z" fill="currentColor"/>
<path d="M2.85715 14.2857C2.85715 13.4968 3.49674 12.8572 4.28572 12.8572C5.0747 12.8572 5.71429 13.4968 5.71429 14.2857C5.71429 15.0747 5.0747 15.7143 4.28572 15.7143C3.49674 15.7143 2.85715 15.0747 2.85715 14.2857Z" fill="currentColor"/>
<path d="M8.57144 14.2857C8.57144 13.4968 9.21104 12.8572 10 12.8572C10.789 12.8572 11.4286 13.4968 11.4286 14.2857C11.4286 15.0747 10.789 15.7143 10 15.7143C9.21104 15.7143 8.57144 15.0747 8.57144 14.2857Z" fill="currentColor"/>
<path d="M14.2857 14.2857C14.2857 13.4968 14.9253 12.8572 15.7143 12.8572C16.5033 12.8572 17.1428 13.4968 17.1428 14.2857C17.1428 15.0747 16.5033 15.7143 15.7143 15.7143C14.9253 15.7143 14.2857 15.0747 14.2857 14.2857Z" fill="currentColor"/>
</svg>
