<svg width="24" height="24" viewBox="0 0 24 24" fill="none" xmlns="http://www.w3.org/2000/svg">
<path d="M6.28636 13.2249C4.93436 11.6079 3.84136 9.97989 3.26936 8.59089C2.60936 7.15189 2.56936 5.96089 3.22936 5.06189C3.53936 4.55089 5.23936 2.69189 6.45036 2.75089C6.80936 2.78189 7.12936 3.00089 7.39036 3.25089C7.68936 3.54089 8.26936 4.24189 8.77936 4.92089C9.28936 5.60189 9.74936 6.27189 9.78936 6.50089C10.0294 7.64088 8.66936 8.30088 9.08936 9.44188C9.18236 9.66888 9.28036 9.88989 9.38636 10.1039" stroke="currentColor" stroke-width="1.5" stroke-linecap="round" stroke-linejoin="round"/>
<path d="M2.75 21.2512L21.25 2.75122" stroke="currentColor" stroke-width="1.5" stroke-linecap="round" stroke-linejoin="round"/>
<path d="M8.43945 15.5617C10.7595 17.8807 13.3895 19.9017 15.4195 20.7417C16.8595 21.4117 18.0395 21.4207 18.9395 20.7717C19.3295 20.5507 21.2995 18.8317 21.2495 17.5507C21.2195 17.1917 20.9995 16.8717 20.7495 16.6117C20.1695 16.0107 17.9595 14.3007 17.4995 14.2107C16.3595 13.9707 15.6995 15.3317 14.5595 14.9117C13.2695 14.3807 12.1595 13.6617 11.2495 12.7507" stroke="currentColor" stroke-width="1.5" stroke-linecap="round" stroke-linejoin="round"/>
</svg>
