<svg
	xmlns="http://www.w3.org/2000/svg"
	width="20"
	height="20"
	viewBox="0 0 20 20"
	fill="none"
>
	<path
		fill-rule="evenodd"
		clip-rule="evenodd"
		d="M10 20C15.5228 20 20 15.5228 20 10C20 4.47715 15.5228 0 10 0C4.47715 0 0 4.47715 0 10C0 15.5228 4.47715 20 10 20ZM13.9274 6.58723L8.85782 11.4455H8.85776L6.91473 9.58347C6.53715 9.22155 5.92401 9.22155 5.54635 9.58347C5.16876 9.94532 5.16876 10.533 5.54635 10.8948L8.1736 13.4126C8.55148 13.7747 9.1641 13.7747 9.54198 13.4126L15.2958 7.8986C15.6733 7.53674 15.6733 6.94908 15.2958 6.58723C14.9182 6.22531 14.305 6.22531 13.9274 6.58723Z"
		fill="currentColor"
	/>
</svg>
