<svg width="346" height="346" viewBox="0 0 346 346" fill="none" xmlns="http://www.w3.org/2000/svg">
<path d="M173.267 0H172.733V2.66975H173.267V0Z" fill="white" fill-opacity="0.5"/>
<path d="M200.524 1.63478L200.097 4.27783L200.625 4.36326L201.052 1.72021L200.524 1.63478Z" fill="white" fill-opacity="0.5"/>
<path d="M226.206 8.38548L225.381 10.9246L225.889 11.0896L226.714 8.55048L226.206 8.38548Z" fill="white" fill-opacity="0.5"/>
<path d="M251.301 18.7313L250.089 21.1101L250.565 21.3525L251.777 18.9738L251.301 18.7313Z" fill="white" fill-opacity="0.5"/>
<path d="M275.113 32.6859L273.538 34.8484L273.971 35.1634L275.546 33.0009L275.113 32.6859Z" fill="white" fill-opacity="0.5"/>
<path d="M295.141 50.4879L293.253 52.3757L293.63 52.7533L295.518 50.8655L295.141 50.4879Z" fill="white" fill-opacity="0.5"/>
<path d="M312.806 71.0968L310.646 72.666L310.96 73.098L313.12 71.5288L312.806 71.0968Z" fill="white" fill-opacity="0.5"/>
<path d="M327.025 94.2216L324.646 95.4336L324.889 95.9093L327.268 94.6973L327.025 94.2216Z" fill="white" fill-opacity="0.5"/>
<path d="M337.446 119.285L334.907 120.11L335.072 120.617L337.611 119.792L337.446 119.285Z" fill="white" fill-opacity="0.5"/>
<path d="M343.827 145.676L341.19 146.094L341.274 146.621L343.911 146.203L343.827 145.676Z" fill="white" fill-opacity="0.5"/>
<path d="M346 172.733H343.33V173.267H346V172.733Z" fill="white" fill-opacity="0.5"/>
<path d="M341.274 199.38L341.19 199.907L343.827 200.325L343.911 199.797L341.274 199.38Z" fill="white" fill-opacity="0.5"/>
<path d="M335.077 225.384L334.912 225.892L337.451 226.717L337.616 226.209L335.077 225.384Z" fill="white" fill-opacity="0.5"/>
<path d="M324.888 250.088L324.646 250.564L327.024 251.776L327.267 251.3L324.888 250.088Z" fill="white" fill-opacity="0.5"/>
<path d="M310.955 272.9L310.642 273.332L312.802 274.901L313.115 274.469L310.955 272.9Z" fill="white" fill-opacity="0.5"/>
<path d="M293.627 293.25L293.249 293.628L295.137 295.516L295.514 295.138L293.627 293.25Z" fill="white" fill-opacity="0.5"/>
<path d="M273.33 310.644L272.898 310.958L274.468 313.118L274.9 312.804L273.33 310.644Z" fill="white" fill-opacity="0.5"/>
<path d="M250.568 324.643L250.092 324.885L251.304 327.264L251.78 327.022L250.568 324.643Z" fill="white" fill-opacity="0.5"/>
<path d="M225.888 334.906L225.38 335.071L226.205 337.61L226.713 337.445L225.888 334.906Z" fill="white" fill-opacity="0.5"/>
<path d="M199.908 341.19L199.381 341.274L199.799 343.911L200.326 343.827L199.908 341.19Z" fill="white" fill-opacity="0.5"/>
<path d="M173.267 343.33H172.733V346H173.267V343.33Z" fill="white" fill-opacity="0.5"/>
<path d="M146.092 341.19L145.675 343.827L146.202 343.91L146.62 341.273L146.092 341.19Z" fill="white" fill-opacity="0.5"/>
<path d="M120.109 334.91L119.284 337.449L119.792 337.614L120.617 335.075L120.109 334.91Z" fill="white" fill-opacity="0.5"/>
<path d="M95.4337 324.644L94.2217 327.023L94.6974 327.265L95.9095 324.887L95.4337 324.644Z" fill="white" fill-opacity="0.5"/>
<path d="M72.6659 310.64L71.0967 312.8L71.5287 313.114L73.0979 310.954L72.6659 310.64Z" fill="white" fill-opacity="0.5"/>
<path d="M52.3693 293.247L50.4814 295.135L50.859 295.512L52.7468 293.624L52.3693 293.247Z" fill="white" fill-opacity="0.5"/>
<path d="M35.0437 272.901L32.8838 274.47L33.1976 274.902L35.3575 273.333L35.0437 272.901Z" fill="white" fill-opacity="0.5"/>
<path d="M21.1161 250.094L18.7373 251.306L18.9797 251.782L21.3585 250.57L21.1161 250.094Z" fill="white" fill-opacity="0.5"/>
<path d="M10.9258 225.383L8.38672 226.208L8.55172 226.716L11.0908 225.891L10.9258 225.383Z" fill="white" fill-opacity="0.5"/>
<path d="M4.7277 199.38L2.09082 199.798L2.17435 200.325L4.81123 199.908L4.7277 199.38Z" fill="white" fill-opacity="0.5"/>
<path d="M2.66975 172.733H0V173.267H2.66975V172.733Z" fill="white" fill-opacity="0.5"/>
<path d="M2.17337 145.674L2.08984 146.201L4.72673 146.619L4.81026 146.091L2.17337 145.674Z" fill="white" fill-opacity="0.5"/>
<path d="M8.54781 119.282L8.38281 119.79L10.9219 120.615L11.0869 120.107L8.54781 119.282Z" fill="white" fill-opacity="0.5"/>
<path d="M18.9748 94.2205L18.7324 94.6963L21.1112 95.9083L21.3536 95.4326L18.9748 94.2205Z" fill="white" fill-opacity="0.5"/>
<path d="M33.1967 71.1L32.8828 71.532L35.0427 73.1012L35.3565 72.6692L33.1967 71.1Z" fill="white" fill-opacity="0.5"/>
<path d="M50.8629 50.4843L50.4854 50.8618L52.3731 52.7496L52.7507 52.3721L50.8629 50.4843Z" fill="white" fill-opacity="0.5"/>
<path d="M71.6747 32.7533L71.2422 33.0684L72.8174 35.2309L73.2499 34.9158L71.6747 32.7533Z" fill="white" fill-opacity="0.5"/>
<path d="M94.6955 18.7339L94.2197 18.9763L95.4318 21.3551L95.9075 21.1127L94.6955 18.7339Z" fill="white" fill-opacity="0.5"/>
<path d="M119.794 8.38554L119.286 8.55054L120.111 11.0896L120.619 10.9246L119.794 8.38554Z" fill="white" fill-opacity="0.5"/>
<path d="M146.203 2.09054L145.676 2.17407L146.093 4.81096L146.621 4.72743L146.203 2.09054Z" fill="white" fill-opacity="0.5"/>
<path d="M173.267 0H172.733V2.66975H173.267V0Z" fill="white" fill-opacity="0.5"/>
</svg>
