<svg width="24" height="24" viewBox="0 0 24 24" fill="none" xmlns="http://www.w3.org/2000/svg">
<path d="M11.25 16.2695C11.25 15.8555 11.586 15.5135 12 15.5135C12.414 15.5135 12.75 15.8445 12.75 16.2585V16.2695C12.75 16.6835 12.414 17.0195 12 17.0195C11.586 17.0195 11.25 16.6835 11.25 16.2695Z" fill="currentColor"/>
<path d="M4.79535 20.4179H19.2774C20.4244 20.3579 21.3064 19.3809 21.2474 18.2339C21.2344 18.0019 21.1844 17.7729 21.0964 17.5589L13.8194 4.82285C13.2634 3.81785 11.9984 3.45385 10.9934 4.01085C10.6514 4.19885 10.3694 4.48085 10.1804 4.82285L2.90335 17.5589C2.47135 18.6229 2.98335 19.8349 4.04635 20.2679C4.26235 20.3549 4.49035 20.4049 4.72235 20.4179" stroke="currentColor" stroke-width="1.5" stroke-linecap="round" stroke-linejoin="round"/>
<path d="M11.9893 13.396V10.296" stroke="currentColor" stroke-width="1.5" stroke-linecap="round" stroke-linejoin="round"/>
</svg>
