<svg
	xmlns="http://www.w3.org/2000/svg"
	width="20"
	height="20"
	viewBox="0 0 20 20"
	fill="none"
>
	<path
		fill-rule="evenodd"
		clip-rule="evenodd"
		d="M13.2501 2.50001H17.0001C17.2211 2.50001 17.4331 2.58781 17.5894 2.74406C17.7456 2.90031 17.8334 3.11237 17.8334 3.33335V5.83336C17.8334 6.05435 17.7456 6.2664 17.5894 6.42265C17.4331 6.5789 17.2211 6.6667 17.0001 6.6667H16.8476L16.8447 6.7H2.98875L2.98587 6.6667H2.83334C2.61236 6.6667 2.4003 6.5789 2.24405 6.42265C2.0878 6.2664 2 6.05435 2 5.83336V3.33335C2 3.11237 2.0878 2.90031 2.24405 2.74406C2.4003 2.58781 2.61236 2.50001 2.83334 2.50001H6.58336V2.08334C6.58412 1.53106 6.80378 1.00149 7.19422 0.610861C7.58484 0.220425 8.11441 0.000744052 8.6667 0H11.1667C11.719 0.000761909 12.2486 0.22042 12.6392 0.610861C13.0296 1.00148 13.2493 1.53106 13.2501 2.08334V2.50001ZM3.11885 8.2L3.94421 17.7163C3.99499 18.3407 4.27977 18.923 4.74164 19.3463C5.20332 19.7698 5.80807 20.0033 6.43455 20H13.3989C14.0254 20.0033 14.6301 19.7699 15.0918 19.3463C15.5537 18.9229 15.8385 18.3407 15.8892 17.7163L16.7146 8.2H3.11885ZM8.6667 1.66668C8.43661 1.66668 8.25003 1.85325 8.25003 2.08334V2.50001H11.5834V2.08334C11.5834 1.97285 11.5395 1.86683 11.4614 1.7887C11.3832 1.71057 11.2772 1.66668 11.1667 1.66668H8.6667ZM7.9165 10.25C8.33072 10.25 8.6665 10.5858 8.6665 11V16C8.6665 16.4142 8.33072 16.75 7.9165 16.75C7.50229 16.75 7.1665 16.4142 7.1665 16V11C7.1665 10.5858 7.50229 10.25 7.9165 10.25ZM12.6665 11C12.6665 10.5858 12.3307 10.25 11.9165 10.25C11.5023 10.25 11.1665 10.5858 11.1665 11V16C11.1665 16.4142 11.5023 16.75 11.9165 16.75C12.3307 16.75 12.6665 16.4142 12.6665 16V11Z"
		fill="currentColor"
	/>
</svg>
