<svg
	xmlns="http://www.w3.org/2000/svg"
	width="20"
	height="20"
	viewBox="0 0 20 20"
	fill="none"
>
	<path
		d="M17 18.6668C18.6569 18.6668 20 17.3236 20 15.6668L20 5.79513C20 5.79513 10.915 12.8899 10.03 13.258C9.16 12.9066 0 5.79513 0 5.79513V15.6667C0 17.3236 1.34315 18.6668 3 18.6668H17ZM20 4.11921C20 3.31704 19.3497 2.66675 18.5475 2.66675L1.62388 2.66675C0.735323 2.66675 0.015 3.38707 0.015 4.27563C0.015 4.27563 9.0495 11.2251 10.015 11.605C11.035 11.1637 20 4.11921 20 4.11921Z"
		fill="currentColor"
	/>
</svg>
