<svg xmlns="http://www.w3.org/2000/svg" width="30" height="30" viewBox="0 0 30 30" fill="none">
  <g clip-path="url(#clip0_6316_8414)">
    <path d="M22.0582 15C22.0593 16.6609 21.4742 18.269 20.406 19.5409C19.3378 20.8127 17.8549 21.6668 16.2188 21.9526C14.5826 22.2384 12.898 21.9376 11.4619 21.1033C10.0257 20.2689 8.93012 18.9544 8.36807 17.3914L4.33105 20.621C5.58634 23.0072 7.60495 24.904 10.0646 26.0086C12.5242 27.1131 15.283 27.3617 17.9004 26.7145C20.5179 26.0674 22.843 24.562 24.5046 22.4386C26.1662 20.3152 27.0684 17.6962 27.0671 15" fill="#00AC47"/>
    <path d="M22.0584 15C22.0575 16.1229 21.7883 17.2293 21.2732 18.2271C20.7581 19.2249 20.012 20.0852 19.0972 20.7363L23.0883 23.9292C24.3398 22.8024 25.3407 21.4254 26.0261 19.8872C26.7116 18.349 27.0663 16.684 27.0674 15" fill="#4285F4"/>
    <path d="M7.94203 15.0002C7.94378 14.1843 8.08792 13.375 8.36797 12.6087L4.33096 9.37915C3.41304 11.1106 2.93311 13.0405 2.93311 15.0002C2.93311 16.9599 3.41304 18.8898 4.33096 20.6212L8.36797 17.3916C8.08792 16.6253 7.94378 15.816 7.94203 15.0002Z" fill="#FFBA00"/>
    <path d="M15.0002 7.9418C16.4936 7.94221 17.9479 8.41947 19.1512 9.30404L22.8487 5.85307C21.4761 4.66966 19.854 3.81149 18.1034 3.34262C16.3528 2.87375 14.519 2.80628 12.7387 3.14525C10.9583 3.48422 9.27758 4.22088 7.82177 5.30024C6.36596 6.37961 5.1727 7.77381 4.33105 9.37881L8.36807 12.6084C8.86041 11.2436 9.76111 10.0635 10.9477 9.22853C12.1343 8.39359 13.5493 7.94432 15.0002 7.9418Z" fill="#EA4435"/>
    <path d="M27.0672 14.0892V14.9999L25.0181 18.1874H15.4556V13.1785H26.1565C26.398 13.1785 26.6296 13.2744 26.8004 13.4452C26.9712 13.616 27.0672 13.8476 27.0672 14.0892Z" fill="#4285F4"/>
  </g>
  <defs>
    <clipPath id="clip0_6316_8414">
      <rect width="29.1429" height="29.1429" fill="white" transform="translate(0.428711 0.428467)"/>
    </clipPath>
  </defs>
</svg>
