<svg width="24" height="24" viewBox="0 0 24 24" fill="none" xmlns="http://www.w3.org/2000/svg">
<path fill-rule="evenodd" clip-rule="evenodd" d="M21.5241 9.75284C20.885 5.81944 17.5441 2.89321 13.5608 2.77801C13.3714 2.77059 13.1868 2.83878 13.0477 2.96755C12.9086 3.09632 12.8265 3.27511 12.8193 3.46451V3.46451V3.52859L13.2678 10.238C13.2973 10.6896 13.6856 11.0329 14.1374 11.0068L20.8651 10.5583C21.0547 10.5443 21.2308 10.4553 21.3545 10.311C21.4782 10.1666 21.5393 9.97894 21.5241 9.78946V9.75284Z" stroke="currentColor" stroke-width="1.5" stroke-linecap="round" stroke-linejoin="round"/>
<path d="M8.902 6.76889C9.32995 6.6699 9.76789 6.88887 9.94548 7.29063C9.99199 7.38512 10.02 7.48766 10.0279 7.59269C10.1194 8.89246 10.3116 11.7391 10.4214 13.2769C10.4402 13.5539 10.5686 13.812 10.7782 13.9941C10.9877 14.1762 11.2612 14.2673 11.5382 14.2472V14.2472L17.1858 13.8993C17.4379 13.8842 17.6851 13.9739 17.8688 14.1472C18.0525 14.3205 18.1565 14.5621 18.156 14.8147V14.8147C17.9271 18.225 15.4769 21.0761 12.1397 21.8151C8.8025 22.5541 5.37767 21.0041 3.73037 18.0092C3.23862 17.1472 2.92721 16.1943 2.81504 15.2083C2.76709 14.9056 2.7487 14.5991 2.76012 14.2929C2.76983 10.6509 5.32763 7.51285 8.89284 6.76889" stroke="currentColor" stroke-width="1.5" stroke-linecap="round" stroke-linejoin="round"/>
</svg>
