<svg
	xmlns="http://www.w3.org/2000/svg"
	width="20"
	height="20"
	viewBox="0 0 20 20"
	fill="none"
>
	<path
		d="M4.35297 19.4118H6.87881C7.4311 19.4118 7.87881 18.9641 7.87881 18.4118V13.7808C7.87881 13.2285 8.32653 12.7808 8.87881 12.7808H11.2995C11.8518 12.7808 12.2995 13.2285 12.2995 13.7808V18.4118C12.2995 18.9641 12.7472 19.4118 13.2995 19.4118H15.8253C16.9299 19.4118 17.8253 18.5164 17.8253 17.4118V9.32691C17.8253 9.0617 17.72 8.80734 17.5324 8.61981L10.7963 1.88362C10.4057 1.4931 9.77257 1.4931 9.38204 1.88362L2.64586 8.61981C2.45832 8.80734 2.35297 9.0617 2.35297 9.32691V17.4118C2.35297 18.5164 3.2484 19.4118 4.35297 19.4118Z"
		fill="currentColor"
	/>
</svg>
