<svg width="24" height="24" viewBox="0 0 24 24" fill="none" xmlns="http://www.w3.org/2000/svg">
<path fill-rule="evenodd" clip-rule="evenodd" d="M16.303 2.75024H7.654C4.639 2.75024 2.75 4.88424 2.75 7.90424V16.0532C2.75 19.0732 4.631 21.2072 7.654 21.2072H16.302C19.326 21.2072 21.207 19.0732 21.207 16.0532V7.90424C21.207 4.88424 19.326 2.75024 16.303 2.75024Z" stroke="currentColor" stroke-width="1.5" stroke-linecap="round" stroke-linejoin="round"/>
<path fill-rule="evenodd" clip-rule="evenodd" d="M10.7027 8.78545C10.7027 9.80445 9.87572 10.6315 8.85672 10.6315C7.83872 10.6315 7.01172 9.80445 7.01172 8.78545C7.01172 7.76645 7.83872 6.93945 8.85672 6.93945C9.87572 6.93945 10.7027 7.76645 10.7027 8.78545Z" stroke="currentColor" stroke-width="1.5" stroke-linecap="round" stroke-linejoin="round"/>
<path d="M21.206 14.9504C20.212 14.0854 19.347 13.0444 18.207 12.3574C17.065 11.6704 15.838 12.0944 15.046 13.1194C14.281 14.1104 13.803 15.4434 12.648 16.0684C11.225 16.8394 10.389 15.5964 9.20202 15.0984C7.87702 14.5434 6.87102 15.5414 6.09702 16.5004C5.32202 17.4604 4.53702 18.4104 3.74902 19.3604" stroke="currentColor" stroke-width="1.5" stroke-linecap="round" stroke-linejoin="round"/>
</svg>
