<svg width="36" height="44" viewBox="0 0 36 44" fill="none" xmlns="http://www.w3.org/2000/svg">
<path d="M1 5L1 39C1 41.2091 2.79086 43 5 43H31C33.2091 43 35 41.2091 35 39V10.6569C35 9.59599 34.5786 8.57857 33.8284 7.82843L28.1716 2.17157C27.4214 1.42143 26.404 1 25.3431 1L5 1C2.79086 1 1 2.79086 1 5Z" stroke="currentColor"/>
<path d="M8.19211 26.696V25.916C8.40011 25.94 8.58011 25.952 8.73211 25.952C9.13211 25.952 9.43211 25.864 9.63211 25.688C9.83211 25.512 9.93211 25.228 9.93211 24.836V18.656H10.8561V24.896C10.8561 25.52 10.6841 25.992 10.3401 26.312C10.0041 26.632 9.53611 26.792 8.93611 26.792C8.68011 26.792 8.43211 26.76 8.19211 26.696ZM9.70411 16.424C9.70411 16.24 9.77211 16.084 9.90811 15.956C10.0441 15.82 10.2081 15.752 10.4001 15.752C10.5841 15.752 10.7441 15.82 10.8801 15.956C11.0161 16.084 11.0841 16.24 11.0841 16.424C11.0841 16.616 11.0161 16.776 10.8801 16.904C10.7521 17.032 10.5921 17.096 10.4001 17.096C10.2081 17.096 10.0441 17.032 9.90811 16.904C9.77211 16.776 9.70411 16.616 9.70411 16.424ZM18.0212 19.4C18.5732 19.984 18.8492 20.708 18.8492 21.572C18.8492 22.436 18.5692 23.164 18.0092 23.756C17.4572 24.34 16.7732 24.632 15.9572 24.632C15.0372 24.632 14.3212 24.308 13.8092 23.66V26.66H12.8852V18.656H13.7492V19.592C13.9732 19.256 14.2812 18.996 14.6732 18.812C15.0652 18.62 15.4932 18.524 15.9572 18.524C16.7892 18.524 17.4772 18.816 18.0212 19.4ZM17.3012 23.156C17.7012 22.74 17.9012 22.216 17.9012 21.584C17.9012 20.952 17.7012 20.428 17.3012 20.012C16.9092 19.588 16.4172 19.376 15.8252 19.376C15.2652 19.376 14.7852 19.568 14.3852 19.952C13.9932 20.336 13.7972 20.876 13.7972 21.572C13.7972 22.284 13.9892 22.832 14.3732 23.216C14.7652 23.592 15.2492 23.78 15.8252 23.78C16.4172 23.78 16.9092 23.572 17.3012 23.156ZM25.2073 18.656H26.0833V23.936C26.0833 24.816 25.8273 25.512 25.3153 26.024C24.8033 26.536 24.1113 26.792 23.2393 26.792C22.1593 26.792 21.2433 26.416 20.4913 25.664L21.0313 25.016C21.7353 25.632 22.4633 25.94 23.2153 25.94C23.8233 25.94 24.2993 25.768 24.6433 25.424C24.9873 25.088 25.1593 24.608 25.1593 23.984V23.468C24.9273 23.772 24.6153 24.012 24.2233 24.188C23.8393 24.356 23.4273 24.44 22.9873 24.44C22.1633 24.44 21.4793 24.16 20.9353 23.6C20.3913 23.04 20.1193 22.336 20.1193 21.488C20.1193 20.648 20.3913 19.944 20.9353 19.376C21.4873 18.808 22.1713 18.524 22.9873 18.524C23.4513 18.524 23.8793 18.62 24.2713 18.812C24.6713 18.996 24.9833 19.256 25.2073 19.592V18.656ZM25.1713 21.488C25.1713 20.824 24.9713 20.312 24.5713 19.952C24.1793 19.584 23.6993 19.4 23.1313 19.4C22.5313 19.4 22.0353 19.6 21.6433 20C21.2513 20.392 21.0553 20.892 21.0553 21.5C21.0553 22.116 21.2513 22.62 21.6433 23.012C22.0353 23.396 22.5313 23.588 23.1313 23.588C23.7073 23.588 24.1913 23.408 24.5833 23.048C24.9753 22.68 25.1713 22.16 25.1713 21.488Z" fill="currentColor"/>
</svg>
