<svg
	xmlns="http://www.w3.org/2000/svg"
	width="21"
	height="20"
	viewBox="0 0 21 20"
	fill="none"
>
	<path
		fill-rule="evenodd"
		clip-rule="evenodd"
		d="M12.2465 2.5C11.2843 0.833333 8.87864 0.833334 7.91639 2.5L0.338666 15.625C-0.623585 17.2917 0.57923 19.375 2.50373 19.375H17.6592C19.5837 19.375 20.7865 17.2917 19.8242 15.625L12.2465 2.5ZM11.2421 17.334V9.14551H9.00818V17.334H11.2421ZM10.9857 6.17188C10.7465 6.01562 10.4608 5.9375 10.1288 5.9375C9.79187 5.9375 9.50378 6.01562 9.26453 6.17188C9.03015 6.32324 8.91296 6.60889 8.91296 7.02881C8.91296 7.44385 9.03015 7.73193 9.26453 7.89307C9.50378 8.04932 9.79187 8.12744 10.1288 8.12744C10.4608 8.12744 10.7465 8.04932 10.9857 7.89307C11.225 7.73193 11.3446 7.44385 11.3446 7.02881C11.3446 6.60889 11.225 6.32324 10.9857 6.17188Z"
		fill="currentColor"
	/>
</svg>
