<svg width="28" height="28" viewBox="0 0 28 28" fill="none" xmlns="http://www.w3.org/2000/svg">
<path d="M1.03102 13.9998C0.527417 13.9998 0.116047 14.4086 0.149106 14.9111C0.328758 17.6419 1.31276 20.2663 2.98704 22.4483C4.84684 24.8721 7.45444 26.6144 10.4054 27.4051C13.3564 28.1958 16.4858 27.9907 19.3083 26.8216C21.8492 25.7691 24.0136 23.9883 25.5346 21.7131C25.8145 21.2944 25.6626 20.7348 25.2265 20.483V20.483C24.7904 20.2312 24.2355 20.3829 23.9514 20.7988C22.6341 22.7275 20.7803 24.2379 18.6104 25.1367C16.1588 26.1522 13.4406 26.3303 10.8774 25.6435C8.31422 24.9567 6.04929 23.4434 4.43388 21.3381C3.00406 19.4747 2.15382 17.2398 1.97733 14.9109C1.93928 14.4087 1.53462 13.9998 1.03102 13.9998V13.9998Z" fill="url(#paint0_linear)"/>
<defs>
<linearGradient id="paint0_linear" x1="-2.2031" y1="19.3058" x2="12.6316" y2="23.6913" gradientUnits="userSpaceOnUse">
<stop stop-color="#7B89A3"/>
<stop offset="1" stop-color="#99ABC9"/>
</linearGradient>
</defs>
</svg>

