<svg xmlns="http://www.w3.org/2000/svg" width="82" height="34" viewBox="0 0 82 34" fill="none">
  <path fill-rule="evenodd" clip-rule="evenodd" d="M79.8387 22.4351H76.9013H11.7272H8.78974C6.91713 22.4351 4.64062 23.7869 3.68596 25.4014L0.418074 31.0337C-0.536589 32.6483 0.197767 34 2.07038 34H5.0078H70.1819H73.1194C74.992 34 77.2685 32.6483 78.2231 31.0337L81.491 25.4014C82.4457 23.7493 81.7113 22.4351 79.8387 22.4351Z" fill="#1070CF"/>
  <path d="M7.10059 30.7708C7.10059 29.0812 7.10059 27.3915 7.10059 25.7018C7.79822 25.7018 8.5693 25.7018 9.26694 25.7018C11.6536 25.7018 11.6536 29.4942 9.26694 29.4942H8.34899V30.8084C7.9451 30.7708 7.5412 30.7708 7.10059 30.7708ZM9.26694 26.8283C8.9732 26.8283 8.64274 26.8283 8.34899 26.8283C8.34899 27.2413 8.34899 27.8796 8.34899 28.2926H9.26694C9.96458 28.2926 10.038 26.8658 9.26694 26.8283Z" fill="white"/>
  <path d="M17.6019 26.8283C16.8675 26.8283 16.5003 26.8283 15.766 26.8283V27.5417H17.455C17.455 27.9172 17.455 28.2926 17.455 28.7057H15.766C15.766 29.0061 15.766 29.3064 15.766 29.6068C16.5003 29.6068 16.9042 29.6068 17.6753 29.6068C17.6753 29.9823 17.6753 30.3578 17.6753 30.7708C16.5003 30.7708 15.6558 30.7708 14.5176 30.7708C14.5176 29.0812 14.5176 27.3915 14.5176 25.7018C15.6558 25.7018 16.4636 25.7018 17.6019 25.7018C17.6019 26.0773 17.6019 26.4528 17.6019 26.8283Z" fill="white"/>
  <path d="M23.2562 30.3577C21.9711 30.3202 20.9062 29.7945 20.9062 28.2175C20.9062 26.6404 21.9711 26.1523 23.2195 26.0772V25.6642H24.4312V26.0772C25.7163 26.1148 26.7444 26.6404 26.7444 28.2175C26.7444 29.7945 25.6796 30.3202 24.3944 30.3577V30.7708H23.1828V30.3577H23.2562ZM23.2929 29.1562V27.2788C22.7421 27.3163 22.2281 27.504 22.2281 28.2175C22.2281 28.9309 22.7789 29.1186 23.2929 29.1562ZM24.4679 27.2788V29.1562C24.9819 29.1186 25.5327 28.9309 25.5327 28.2175C25.5327 27.504 25.0186 27.3163 24.4679 27.2788Z" fill="white"/>
  <path d="M30.7101 30.7708H30.2695V25.7017C30.7101 25.7017 31.1508 25.7017 31.5547 25.7017V28.1799L34.0515 25.6642H34.5288V30.7708C34.0882 30.7708 33.6476 30.7708 33.207 30.7708V28.2926L30.7101 30.7708Z" fill="white"/>
  <path d="M42.3858 30.7708C41.9452 30.7708 41.5046 30.7708 41.1007 30.7708V28.7432H39.5586V30.7708C39.1179 30.7708 38.6773 30.7708 38.2734 30.7708V25.7018C38.7141 25.7018 39.1547 25.7018 39.5586 25.7018V27.5417H41.1007V25.7018C41.5413 25.7018 41.9819 25.7018 42.3858 25.7018V30.7708Z" fill="white"/>
  <path d="M46.6086 30.7708H46.168V25.7017C46.6086 25.7017 47.0492 25.7017 47.4531 25.7017V28.1799L49.9499 25.6642H50.4272V30.7708C49.9866 30.7708 49.546 30.7708 49.1054 30.7708V28.2926L46.6086 30.7708Z" fill="white"/>
  <path d="M54.1729 25.702H55.458V29.5694H56.6697V25.702H57.9548V29.5694H59.1665V25.702H60.4516V30.771H54.1729V25.702Z" fill="white"/>
  <path d="M67.2816 26.8284C66.5472 26.8284 66.18 26.8284 65.4457 26.8284V27.5418H67.1347C67.1347 27.9173 67.1347 28.2928 67.1347 28.7058H65.4457C65.4457 29.0062 65.4457 29.3066 65.4457 29.607C66.18 29.607 66.5839 29.607 67.355 29.607C67.355 29.9825 67.355 30.358 67.355 30.771C66.18 30.771 65.3355 30.771 64.1973 30.771C64.1973 29.0813 64.1973 27.3916 64.1973 25.702C65.3355 25.702 66.1433 25.702 67.2816 25.702C67.2816 26.0774 67.2816 26.4529 67.2816 26.8284Z" fill="white"/>
  <path d="M70.916 30.771C70.916 29.0813 70.916 27.3916 70.916 25.702C71.6137 25.702 72.3847 25.702 73.0824 25.702C75.469 25.702 75.469 29.4943 73.0824 29.4943H72.1644V30.8085C71.7605 30.771 71.3199 30.771 70.916 30.771ZM73.0824 26.8284C72.7886 26.8284 72.4582 26.8284 72.1644 26.8284C72.1644 27.2414 72.1644 27.8798 72.1644 28.2928H73.0824C73.78 28.2928 73.8167 26.866 73.0824 26.8284Z" fill="white"/>
  <path d="M7.10059 18.7929H28.6539L17.8956 0.0563224L7.10059 18.7929ZM22.2283 15.0381H13.5262L17.8956 7.45334L22.2283 15.0381ZM44.8465 5.95141C44.6996 2.53451 41.8357 -0.0938708 38.4943 0.0563224H29.9024V18.7929H39.4857C42.9005 18.6052 45.5074 15.8266 45.5441 12.2971C45.5441 10.7576 45.2504 9.81888 44.4059 8.54224C44.7731 7.60353 44.8832 7.00276 44.8465 5.95141ZM39.0818 15.0005H33.5374V3.81115H38.3842C39.8162 3.69851 40.9911 4.71231 41.2482 6.13915C41.3583 6.92766 41.2482 7.56598 40.8443 8.12921C40.5872 8.46714 40.6607 8.95527 40.9544 9.25565C41.5786 9.81888 41.9091 10.5698 41.9458 11.5461C42.0192 13.3109 40.8076 14.8128 39.0818 15.0005ZM79.1777 2.7598C75.5793 -0.919933 69.7779 -0.919933 66.2163 2.7598C62.6179 6.43953 62.6179 12.3722 66.2163 16.0143C69.8146 19.6941 75.6161 19.6941 79.1777 16.0143C82.7393 12.3722 82.7393 6.43953 79.1777 2.7598ZM76.4606 13.4235C74.3676 15.5638 70.9896 15.5638 68.8967 13.4235C66.8038 11.2833 66.8038 7.82882 68.8967 5.68857C70.9896 3.54831 74.3676 3.54831 76.4606 5.68857C78.5168 7.82882 78.5168 11.2833 76.4606 13.4235ZM47.1964 0.0563224H46.7926V11.3584H49.1058V18.7929H59.7539V11.3584H62.2875V3.81115V0.0563224H47.1964ZM50.4643 3.81115H58.579V7.60353H56.1556V15.0005H52.7408V7.60353H50.4643V3.81115Z" fill="#1070CF"/>
</svg>
