<svg width="159" height="42" viewBox="0 0 159 42" fill="none" xmlns="http://www.w3.org/2000/svg">
<path d="M154.8 30.8L154.6 31.1V31.4H156.4V30H155.8V30.6H155.7C155.3 30.6 155 30.4 155 29.9C155 29.5 155.2 29.2 156.2 29.2C157.3 29.2 157.6 29.4 157.6 29.9C157.6 30.4 157.3 30.5 156.8 30.5V31.3C157.5 31.3 158 30.9 158 29.9C158 29 157.5 28.4 156.1 28.4C154.7 28.4 154.4 29 154.4 29.9C154.5 30.3 154.7 30.6 154.8 30.8ZM156.3 27.4C156.2 27.4 155.9 27.4 155.9 27.4C155.9 27.4 156.2 27.3 156.3 27.2C157 26.8 158.2 26.1 158.2 26.1V25.4H154.6V26.1H156.4C156.5 26.1 156.8 26.1 156.8 26.1C156.8 26.1 156.5 26.2 156.4 26.3C155.7 26.7 154.6 27.4 154.6 27.4V28.1H158.2V27.4H156.3ZM156.8 20.3V19.1H158.2V18.3H154.6V19.1H156.2V20.3H154.6V21.1H158.2V20.3H156.8ZM158.1 21.3H157.5V22.2H154.5V23H157.5V24H158.1V21.3ZM158.1 24.2H154.5V25H158.1V24.2ZM16.8 31.4H22.1V0.5H14.7C13.7 6.1 12.7 12.5 11.9 16.6C11.6 18.2 11.4 19.3 11.1 21.7C10.7 19.2 10.6 18.4 10.3 16.5C9.5 12.4 8.6 6.2 7.6 0.5H0V31.4H5.3V17.4C5.3 12.7 5.3 11.8 5.2 8.8C5.4 11.9 5.7 14 6.2 17.4C7 22.1 8.6 31.4 8.6 31.4H13.5C13.5 31.4 15.1 22.1 15.9 17.4C16.5 13.9 16.5 11.7 16.9 8.8C16.9 11.7 16.8 12.7 16.8 17.4V31.4ZM34.5 16C34.5 25.4 34.3 28 31.6 28C29 28 28.7 25.5 28.7 16C28.7 6.9 28.9 3.9 31.6 3.9C34.3 3.9 34.5 6.9 34.5 16ZM40.6 16C40.6 3.5 37.8 0 31.6 0C25.4 0 22.6 3.3 22.6 16C22.6 29.1 25.3 32 31.6 32C37.8 31.9 40.6 28.8 40.6 16ZM50.8 5.3H56.1V0.5H39.6V5.3H44.9V31.4H50.8V5.3ZM67.1 16C67.1 25.4 66.9 28 64.2 28C61.6 28 61.3 25.5 61.3 16C61.3 6.9 61.5 3.9 64.2 3.9C66.8 3.9 67.1 6.9 67.1 16ZM73.1 16C73.1 3.4 70.3 0 64.1 0C57.9 0 55.1 3.3 55.1 16C55.1 29.1 57.8 32 64.1 32C70.4 31.9 73.1 28.8 73.1 16ZM83.9 9.5C83.9 12.6 82.9 13.8 80.8 13.8H79.6V4.6H80C82.5 4.6 83.9 5.7 83.9 9.5ZM84.9 16C88.1 15.5 90 13.9 90 9C90 3.2 87 0.5 81.9 0.5H73.7V31.4H79.6V18.4H80.8C82.9 18.4 83.5 20 83.5 22.5C83.5 27.6 83.6 30.1 84.4 31.4H90.5C89.7 30.3 89.3 27.1 89.3 24.2C89.2 19.2 88.4 16.4 84.9 16ZM104.5 22.1C104.5 26 103.5 27.1 101.3 27.1H100V17.1H101.3C103.4 17.1 104.5 19 104.5 22.1ZM103.8 9C103.8 11.8 102.9 13 101 13H100V4.6H100.8C102.9 4.6 103.8 5.8 103.8 9ZM105.3 15C108 14.7 109.7 12.6 109.7 8.7C109.7 3.5 107.2 0.4 101.6 0.4H94.2V31.3H102.2C106.9 31.3 110.6 29.2 110.6 22.6C110.6 17.8 108.1 15.2 105.3 15ZM122.9 16C122.9 25.4 122.7 28 120 28C117.4 28 117.1 25.5 117.1 16C117.1 6.9 117.3 3.9 120 3.9C122.6 3.9 122.9 6.9 122.9 16ZM128.9 16C128.9 3.4 126.1 0 119.9 0C113.7 0 110.9 3.3 110.9 16C110.9 29.1 113.6 32 119.9 32C126.2 31.9 128.9 28.8 128.9 16ZM137.8 21.4H134.8C134.8 21.4 135.3 17.2 135.8 13.4C136 11.5 136.2 9.7 136.2 8.7C136.3 9.7 136.4 11.6 136.7 13.4C137.2 17.2 137.8 21.4 137.8 21.4ZM145.8 31.4L139.4 0.4H133.5L127.6 31.4H133.2L134.2 25.7H138.7L139.7 31.4H145.8ZM152.9 5.3H158.2V0.5H141.7V5.3H147V31.4H152.9V5.3ZM157.8 7.6C157.8 7.8 157.7 8 157.5 8C157.3 8 157.2 7.9 157 7.5C157.1 7.4 157.4 7.3 157.5 7.3C157.7 7.2 157.8 7.4 157.8 7.6ZM156.3 7.1C156.1 7.2 155.9 7.4 155.7 7.5C155.5 7.6 155.3 7.8 155.2 7.9C155 7.7 154.9 7.5 154.9 7.3C154.9 6.8 155.1 6.6 155.5 6.6C155.9 6.6 156.1 6.8 156.3 7.1ZM158.2 7.6C158.2 6.9 157.9 6.6 157.4 6.6C157.2 6.6 156.9 6.7 156.7 6.8C156.4 6.2 156.1 5.9 155.5 5.9C155 5.9 154.5 6.3 154.5 7C154.5 7.3 154.6 7.8 154.9 8.1C154.7 8.3 154.5 8.5 154.5 8.9C154.5 9.4 154.8 9.7 155.2 9.7C155.4 9.7 155.7 9.6 155.7 9.6V9.1C155.6 9.1 155.5 9.1 155.3 9.1C155.2 9.1 154.9 9.1 154.9 8.9C154.9 8.8 155 8.6 155.2 8.5C155.5 8.7 156.1 9.1 156.7 9.3V8.8C156.3 8.7 155.8 8.5 155.5 8.3C155.6 8.2 155.8 8.1 155.9 8C156.1 7.8 156.3 7.7 156.4 7.7C156.6 8.1 156.8 8.5 157.3 8.5C157.9 8.5 158.2 8.2 158.2 7.6ZM155.9 13.4C155.9 13.4 156.3 13.5 156.6 13.6C156.8 13.7 157.2 13.8 157.4 13.8C157.2 13.8 156.9 13.9 156.6 14C156.3 14.1 155.9 14.2 155.9 14.2V13.4ZM155.3 13.3V14.3L154.6 14.5V15.3L158.2 14.3V13.3L154.6 12.3V13.1L155.3 13.3ZM154.6 11.8H156L158.1 12.9V12L156.7 11.4L158.1 10.8V9.9L156 11H154.6V11.8ZM158.2 16.7C158.2 15.8 157.7 15.2 156.3 15.2C155 15.2 154.5 15.8 154.5 16.8C154.5 17.8 155 18.2 155.9 18.2L156 17.4C155.4 17.4 155.1 17.3 155.1 16.8C155.1 16.3 155.3 16.1 156.4 16.1C157.5 16.1 157.7 16.3 157.7 16.8C157.7 17.2 157.5 17.4 156.9 17.4V18.2C157.5 18.1 158.2 17.9 158.2 16.7Z" fill="#8E9FBC"/>
<path d="M122.6 37.8L121.8 39L158.2 37.9L121.7 36.5L122.6 37.8Z" fill="#8E9FBC"/>
<path d="M0 37.9L36.4 39L35.6 37.8L36.4 36.5L0 37.9Z" fill="#8E9FBC"/>
<path d="M114.8 36.8H113.5V35.4H114.9V34.4H112.3V40.3H115V39.3H113.5V37.7H114.9L114.8 36.8ZM106.9 34.4V40.3H108L108.9 38C109.1 37.5 109.4 36.8 109.5 36.3C109.5 36.9 109.4 37.8 109.4 39V40.3H110.4V34.4H109.4L108.5 36.7C108.3 37.2 108 37.9 107.9 38.4C107.9 37.8 108 36.8 108 35.7V34.4H106.9ZM101.4 34.4V40.3H102.6V37.8H103.8V40.3H105V34.4H103.8V36.8H102.6V34.4H101.4ZM97.5004 38.1L97.7004 36.9C97.8004 36.6 97.9004 35.9 97.9004 35.5C98.0004 35.9 98.0004 36.5 98.1004 36.8L98.3004 38H97.5004V38.1ZM98.4004 39L98.7004 40.4H99.8004L98.6004 34.5H97.2004L96.0004 40.3H97.1004L97.4004 38.9H98.4004V39ZM92.3004 35.4H93.1004V39.3H91.8004C91.9004 38.9 92.0004 38.5 92.1004 38.1C92.2004 37.5 92.2004 36.8 92.2004 36.1L92.3004 35.4ZM91.2004 34.4V35.9C91.2004 36.6 91.1004 37.3 91.0004 38C90.9004 38.5 90.8004 38.9 90.6004 39.4H90.2004V41.7H91.1004V40.4H93.7004V41.7H94.6004L94.7004 39.4H94.2004V34.5L91.2004 34.4ZM86.1004 35.6C86.3004 35.5 86.7004 35.4 86.9004 35.4C87.4004 35.4 87.6004 35.7 87.6004 36.1C87.6004 36.6 87.1004 36.9 86.5004 36.9H86.4004V37.8H86.6004C87.2004 37.8 87.8004 38.1 87.8004 38.7C87.8004 39.2 87.5004 39.5 86.9004 39.5C86.6004 39.5 86.2004 39.4 86.0004 39.3L85.8004 40.2C86.1004 40.4 86.5004 40.5 87.0004 40.5C88.1004 40.5 89.0004 39.9 89.0004 38.7C89.0004 37.9 88.5004 37.4 87.8004 37.2C88.4004 37 88.8004 36.5 88.8004 35.9C88.8004 35.1 88.3004 34.4 87.1004 34.4C86.5004 34.4 86.0004 34.6 85.8004 34.7L86.1004 35.6ZM80.7004 34.4V40.3H81.8004L82.7004 38C82.9004 37.5 83.2004 36.8 83.3004 36.3C83.3004 36.9 83.2004 37.8 83.2004 39V40.3H84.2004V34.4H83.2004L82.3004 36.7C82.1004 37.2 81.8004 37.9 81.7004 38.4C81.7004 37.8 81.8004 36.8 81.8004 35.7V34.4H80.7004ZM74.1004 36.8H72.7004V35.4H74.1004V34.4H71.5004V40.3H74.2004V39.3H72.7004V37.7H74.1004V36.8ZM68.0004 35.4C68.5004 35.4 68.7004 36.3 68.7004 37.4C68.7004 38.6 68.5004 39.5 68.0004 39.5C67.5004 39.5 67.3004 38.8 67.3004 37.5C67.3004 36.1 67.6004 35.4 68.0004 35.4ZM68.1004 34.4C66.8004 34.4 66.2004 35.8 66.2004 37.4C66.2004 39 66.7004 40.4 68.1004 40.4C69.2004 40.4 70.0004 39.5 70.0004 37.3C69.9004 35.9 69.5004 34.4 68.1004 34.4ZM61.6004 34.4V40.3H62.7004V37.8H62.8004C63.3004 37.8 63.4004 38.2 63.6004 38.9C63.7004 39.4 63.8004 39.8 63.9004 40.3H65.0004C64.8004 39.8 64.7004 39.2 64.6004 38.6C64.4004 37.9 64.2004 37.3 63.6004 37.1L65.0004 34.4H63.7004L62.7004 37H62.6004V34.4H61.6004ZM59.8004 39.3C59.7004 39.3 59.4004 39.4 59.2004 39.4C58.5004 39.4 58.0004 38.8 58.0004 37.4C58.0004 35.9 58.6004 35.4 59.2004 35.4C59.5004 35.4 59.6004 35.5 59.7004 35.5L59.9004 34.5C59.8004 34.4 59.5004 34.3 59.1004 34.3C57.9004 34.3 56.7004 35.2 56.7004 37.4C56.7004 39.1 57.4004 40.3 58.9004 40.3C59.3004 40.3 59.6004 40.2 59.8004 40.2V39.3ZM55.5004 39.3C55.4004 39.3 55.1004 39.4 54.9004 39.4C54.2004 39.4 53.7004 38.8 53.7004 37.4C53.7004 35.9 54.3004 35.4 54.9004 35.4C55.2004 35.4 55.3004 35.5 55.4004 35.5L55.6004 34.5C55.5004 34.4 55.2004 34.3 54.8004 34.3C53.6004 34.3 52.4004 35.2 52.4004 37.4C52.4004 39.1 53.1004 40.3 54.6004 40.3C55.0004 40.3 55.3004 40.2 55.5004 40.2V39.3ZM47.8004 34.4L49.2004 38.5C49.2004 38.6 49.3004 38.7 49.2004 38.8C49.1004 39.1 48.9004 39.4 48.6004 39.4C48.5004 39.4 48.4004 39.4 48.3004 39.4V40.3C48.4004 40.3 48.6004 40.4 48.8004 40.4C49.3004 40.4 49.7004 40.1 50.0004 39.6C50.3004 39.1 50.5004 38.3 50.7004 37.5L51.6004 34.4H50.4004L50.0004 36.6C49.9004 36.9 49.9004 37.3 49.9004 37.6C49.9004 37.3 49.8004 37 49.7004 36.7L49.0004 34.4H47.8004ZM44.5004 35.4C44.6004 35.4 44.7004 35.4 44.8004 35.4C45.3004 35.4 45.5004 35.8 45.5004 36.3C45.5004 36.9 45.2004 37.3 44.7004 37.3C44.6004 37.3 44.6004 37.3 44.5004 37.3V35.4ZM43.4004 40.3H44.6004V38.1H44.8004C45.3004 38.1 45.9004 37.9 46.2004 37.5C46.5004 37.2 46.7004 36.7 46.7004 36.1C46.7004 35.6 46.5004 35.1 46.2004 34.8C45.8004 34.4 45.3004 34.3 44.6004 34.3C44.2004 34.3 43.7004 34.3 43.4004 34.4V40.3Z" fill="#8E9FBC"/>
</svg>
