<svg xmlns="http://www.w3.org/2000/svg" width="30" height="30" viewBox="0 0 30 30" fill="none">
  <path d="M14.2224 8.1199C16.1855 8.1199 18.0353 8.99017 19.391 10.3506V10.3546C19.391 9.70133 19.8305 9.20713 20.438 9.20713H20.5923C21.551 9.20713 21.743 10.1111 21.743 10.3964L21.747 20.5495C21.6803 21.2149 22.4341 21.5588 22.8528 21.1313C24.48 19.4575 26.4303 12.5178 21.8394 8.49999C17.558 4.74972 11.8117 5.36927 8.7565 7.47463C5.50927 9.7182 3.43364 14.6738 5.44981 19.3313C7.65159 24.4091 13.946 25.9238 17.6922 24.4131C19.5886 23.6473 20.4629 26.2075 18.4918 27.0456C15.521 28.3128 7.24177 28.1835 3.37498 21.4873C0.762573 16.964 0.900787 9.00704 7.83239 4.88472C13.1303 1.7291 20.1206 2.60338 24.3345 7.00293C28.7381 11.6066 28.4834 20.2201 24.1843 23.5686C22.2372 25.0913 19.346 23.6103 19.3669 21.3917L19.3452 20.6685C17.9895 22.0112 16.1855 22.7987 14.2224 22.7987C10.3387 22.7987 6.91954 19.3787 6.91954 15.4991C6.91954 11.5777 10.3387 8.12151 14.2224 8.12151V8.1199ZM19.1073 15.2186C18.9603 12.3764 16.8509 10.6648 14.3019 10.6648H14.2055C11.2677 10.6648 9.63561 12.9791 9.63561 15.6028C9.63561 18.5446 11.6068 20.4025 14.1935 20.4025C17.0807 20.4025 18.9763 18.2899 19.1145 15.7908L19.1073 15.2186Z" fill="#F69400"/>
</svg>
