<svg width="24" height="24" viewBox="0 0 24 24" fill="none" xmlns="http://www.w3.org/2000/svg">
<path fill-rule="evenodd" clip-rule="evenodd" d="M16.335 2.75024H7.66598C4.64498 2.75024 2.75098 4.88924 2.75098 7.91624V16.0842C2.75098 19.1112 4.63498 21.2502 7.66598 21.2502H16.334C19.365 21.2502 21.251 19.1112 21.251 16.0842V7.91624C21.251 4.88924 19.365 2.75024 16.335 2.75024Z" stroke="currentColor" stroke-width="1.5" stroke-linecap="round" stroke-linejoin="round"/>
<path d="M7.52124 13.1975C6.86024 13.1975 6.32324 12.6605 6.32324 12.0005C6.32324 11.3405 6.86024 10.8025 7.52124 10.8025C8.18224 10.8025 8.71924 11.3405 8.71924 12.0005C8.71924 12.6605 8.18224 13.1975 7.52124 13.1975Z" fill="currentColor"/>
<path d="M12.0007 13.1975C11.3397 13.1975 10.8027 12.6605 10.8027 12.0005C10.8027 11.3405 11.3397 10.8025 12.0007 10.8025C12.6617 10.8025 13.1987 11.3405 13.1987 12.0005C13.1987 12.6605 12.6617 13.1975 12.0007 13.1975Z" fill="currentColor"/>
<path d="M16.4792 13.1975C15.8182 13.1975 15.2812 12.6605 15.2812 12.0005C15.2812 11.3405 15.8182 10.8025 16.4792 10.8025C17.1402 10.8025 17.6772 11.3405 17.6772 12.0005C17.6772 12.6605 17.1402 13.1975 16.4792 13.1975Z" fill="currentColor"/>
</svg>
