<svg width="24" height="24" viewBox="0 0 24 24" fill="none" xmlns="http://www.w3.org/2000/svg">
<path fill-rule="evenodd" clip-rule="evenodd" d="M16.334 2.75024H7.665C4.644 2.75024 2.75 4.88924 2.75 7.91624V16.0842C2.75 19.1112 4.635 21.2502 7.665 21.2502H16.333C19.364 21.2502 21.25 19.1112 21.25 16.0842V7.91624C21.25 4.88924 19.364 2.75024 16.334 2.75024Z" stroke="currentColor" stroke-width="1.5" stroke-linecap="round" stroke-linejoin="round"/>
<path fill-rule="evenodd" clip-rule="evenodd" d="M10.6923 12.0002C10.6923 13.0222 9.86326 13.8522 8.84026 13.8522C7.81826 13.8522 6.98926 13.0222 6.98926 12.0002C6.98926 10.9782 7.81826 10.1482 8.84026 10.1482C9.86326 10.1482 10.6923 10.9782 10.6923 12.0002Z" stroke="currentColor" stroke-width="1.5" stroke-linecap="round" stroke-linejoin="round"/>
<path d="M10.6924 12.0002H17.0104V13.8522" stroke="currentColor" stroke-width="1.5" stroke-linecap="round" stroke-linejoin="round"/>
<path d="M14.1816 13.8518V11.9998" stroke="currentColor" stroke-width="1.5" stroke-linecap="round" stroke-linejoin="round"/>
</svg>
