<svg width="24" height="24" viewBox="0 0 24 24" fill="none" xmlns="http://www.w3.org/2000/svg">
<path fill-rule="evenodd" clip-rule="evenodd" d="M12 2C17.5228 2 22 6.47716 22 12C22 17.5228 17.5228 22 12 22C6.47716 22 2 17.5228 2 12C2 6.47716 6.47716 2 12 2Z" stroke="currentColor" stroke-width="1.5" stroke-linecap="round" stroke-linejoin="round"/>
<path fill-rule="evenodd" clip-rule="evenodd" d="M15.0497 12.467C14.3207 13.253 12.3367 14.583 11.3217 15.01C11.1597 15.078 10.7467 15.222 10.6577 15.224C10.4687 15.23 10.2867 15.124 10.1987 14.954C10.1647 14.888 10.0647 14.457 10.0327 14.265C9.93766 13.681 9.88866 12.774 9.88966 11.862C9.88866 10.905 9.94166 9.95495 10.0477 9.37695C10.0757 9.22095 10.1577 8.86195 10.1817 8.80395C10.2267 8.69595 10.3087 8.61095 10.4077 8.55795C10.4837 8.51695 10.5707 8.49495 10.6577 8.49795C10.7467 8.49995 11.1087 8.62695 11.2327 8.67595C12.2107 9.05595 14.2797 10.434 15.0397 11.244C15.1077 11.317 15.2947 11.513 15.3257 11.553C15.3967 11.643 15.4317 11.752 15.4317 11.862C15.4317 11.964 15.4007 12.068 15.3367 12.155C15.3037 12.2 15.1127 12.4 15.0497 12.467Z" stroke="currentColor" stroke-width="1.5" stroke-linecap="round" stroke-linejoin="round"/>
</svg>
