<svg width="16" height="16" viewBox="0 0 16 16" fill="none" xmlns="http://www.w3.org/2000/svg">
<g clip-path="url(#clip0)">
<path d="M15.8574 11.5785C15.8144 11.5065 15.5483 10.9284 14.2683 9.74034C12.9282 8.49625 13.1082 8.69827 14.7223 6.54711C15.7054 5.23701 16.0984 4.43695 15.9754 4.09492C15.8584 3.7689 15.1353 3.85491 15.1353 3.85491L12.7311 3.86891C12.7311 3.86891 12.5531 3.84491 12.4201 3.92391C12.2911 4.00192 12.2081 4.18193 12.2081 4.18193C12.2081 4.18193 11.8271 5.19601 11.319 6.05807C10.248 7.87721 9.81893 7.97321 9.64392 7.8602C9.23689 7.59718 9.3389 6.80213 9.3389 6.23808C9.3389 4.47495 9.60592 3.7399 8.81786 3.54988C8.55584 3.48688 8.36383 3.44488 7.69478 3.43788C6.83672 3.42888 6.10967 3.44088 5.69864 3.64189C5.42462 3.7759 5.2136 4.07492 5.34261 4.09192C5.50162 4.11293 5.86165 4.18893 6.05266 4.44895C6.29968 4.78398 6.29068 5.53803 6.29068 5.53803C6.29068 5.53803 6.43269 7.61319 5.95965 7.87121C5.63463 8.04822 5.1896 7.68719 4.23453 6.03607C3.74549 5.19101 3.37547 4.25594 3.37547 4.25594C3.37547 4.25594 3.30446 4.08192 3.17745 3.98892C3.02344 3.87591 2.80743 3.83991 2.80743 3.83991L0.521261 3.85391C0.521261 3.85391 0.178236 3.86391 0.052227 4.01292C-0.0597811 4.14593 0.0432264 4.41995 0.0432264 4.41995C0.0432264 4.41995 1.83336 8.60726 3.8595 10.7184C5.71864 12.6536 7.82879 12.5266 7.82879 12.5266H8.78486C8.78486 12.5266 9.07388 12.4945 9.22089 12.3355C9.3569 12.1895 9.3519 11.9155 9.3519 11.9155C9.3519 11.9155 9.3329 10.6324 9.92894 10.4434C10.516 10.2574 11.27 11.6835 12.0691 12.2325C12.6731 12.6476 13.1322 12.5566 13.1322 12.5566L15.2693 12.5266C15.2693 12.5266 16.3874 12.4575 15.8574 11.5785Z" fill="currentColor"/>
</g>
<defs>
<clipPath id="clip0">
<rect width="16" height="16" fill="white"/>
</clipPath>
</defs>
</svg>
