<svg width="17" height="17" viewBox="0 0 17 17" fill="none" xmlns="http://www.w3.org/2000/svg">
<path d="M8.83891 16.3201C4.52648 16.3201 1.01758 12.8125 1.01758 8.50005C1.01758 4.18763 4.52648 0.680054 8.83891 0.680054C10.7926 0.680054 12.6626 1.40388 14.1062 2.71873L14.3692 2.95912L11.79 5.53833L11.5509 5.3338C10.7939 4.68568 9.83101 4.32841 8.83891 4.32841C6.53859 4.32841 4.66594 6.19974 4.66594 8.50005C4.66594 10.8004 6.53859 12.6717 8.83891 12.6717C10.4977 12.6717 11.8086 11.8244 12.4262 10.3807H8.49891V6.85982L16.1662 6.87044L16.2233 7.14005C16.623 9.03794 16.303 11.8297 14.6827 13.8272C13.3412 15.4807 11.3756 16.3201 8.83891 16.3201Z" fill="currentColor"/>
</svg>
