<svg width="16" height="16" viewBox="0 0 16 16" fill="none" xmlns="http://www.w3.org/2000/svg">
<path d="M4.33108 0H11.669C14.0571 0 16 1.94287 16 4.33105V11.669C16 14.0571 14.0571 16 11.669 16H4.33095C1.9429 16 3.05176e-05 14.0571 3.05176e-05 11.669V4.33105C3.05176e-05 1.94287 1.9429 0 4.33108 0V0ZM8.00002 12.3749C10.4124 12.3749 12.3749 10.4123 12.3749 7.99998C12.3749 5.58764 10.4124 3.62512 8.00002 3.62512C5.58767 3.62512 3.62515 5.58764 3.62515 7.99998C3.62515 10.4123 5.58767 12.3749 8.00002 12.3749ZM3.52053 4.65685C4.23342 4.65685 4.81325 4.07702 4.81325 3.36413C4.81325 2.65124 4.23342 2.07129 3.52053 2.07129C2.80764 2.07129 2.22769 2.65124 2.22769 3.36413C2.22769 4.07702 2.80764 4.65685 3.52053 4.65685Z" fill="currentColor"/>
<path d="M8.00013 4.56323C9.89514 4.56323 11.437 6.10498 11.437 8.00011C11.437 9.89513 9.89514 11.437 8.00013 11.437C6.10499 11.437 4.56325 9.89513 4.56325 8.00011C4.56325 6.10498 6.10499 4.56323 8.00013 4.56323Z" fill="currentColor"/>
<path d="M3.52075 3.00916C3.71631 3.00916 3.87549 3.16833 3.87549 3.36389C3.87549 3.55945 3.71631 3.71863 3.52075 3.71863C3.32508 3.71863 3.1659 3.55957 3.1659 3.36389C3.1659 3.16821 3.32508 3.00916 3.52075 3.00916Z" fill="currentColor"/>
</svg>
