<svg width="20" height="19" viewBox="0 0 20 19" fill="none" xmlns="http://www.w3.org/2000/svg">
<path d="M17.647 2.77422C17.8232 2.87738 17.9622 3.06651 18.0195 3.28286C18.0768 3.49921 18.0682 3.73849 18.0066 4.01645L15.6296 16.4086L15.6182 16.4401C15.6182 16.4401 15.5064 16.7381 15.2227 16.9688C14.939 17.1995 14.4261 17.3399 13.8601 17.0877L13.82 17.0691L10.5834 14.5474L8.59036 16.3957L8.57747 16.4057C8.57747 16.4057 8.26942 16.6464 7.89833 16.5175C7.88257 16.5146 7.87541 16.5146 7.86395 16.5103C7.85821 16.5074 7.85248 16.5046 7.84675 16.5017L7.85535 16.5031C7.85248 16.5017 7.84818 16.5017 7.84532 16.5003C7.84532 16.5003 7.84532 16.5003 7.84389 16.5003C7.8181 16.4902 7.79231 16.4788 7.76795 16.463C7.70634 16.4243 7.65046 16.3699 7.59601 16.3011C7.48999 16.1621 7.38683 15.9587 7.27794 15.6062C7.07878 14.9686 6.17756 11.9598 6.09446 11.6833L2.84921 10.5728L2.84635 10.5714C2.84635 10.5714 2.1185 10.3723 2.03253 9.6702C2.00817 9.47104 2.07265 9.28191 2.16291 9.14866C2.25174 9.01542 2.36207 8.92372 2.46236 8.85351C2.63286 8.73459 2.8005 8.66868 2.85208 8.65006C3.04121 8.56839 6.26496 7.18576 9.5446 5.7802C11.2353 5.05664 12.9403 4.32593 14.2513 3.76428C15.5637 3.20406 16.452 2.82437 16.6053 2.76276C16.7615 2.70115 16.9349 2.65101 17.1125 2.64384C17.2902 2.63524 17.4722 2.66963 17.647 2.77422ZM16.8776 3.43903C16.7973 3.47199 15.8503 3.8746 14.5393 4.43625C13.2268 4.99647 11.5233 5.72575 9.83258 6.45074C6.45266 7.89785 3.13004 9.32346 3.13004 9.32346L3.11858 9.32919L3.10568 9.33349C3.10568 9.33349 2.98533 9.37791 2.8793 9.45098C2.82629 9.48823 2.78474 9.52978 2.76754 9.55557C2.75035 9.57993 2.75465 9.5742 2.75608 9.57993C2.77184 9.70602 3.09422 9.88511 3.09422 9.88511L6.3452 10.9984L14.949 5.26153C15.0064 5.22285 15.0737 5.20279 15.1425 5.19992C15.2857 5.19706 15.419 5.27872 15.4806 5.40767C15.5436 5.53806 15.5222 5.69137 15.429 5.80169L9.48299 12.798L10.5404 13.5917L10.5432 13.5903L10.6421 13.6677L14.1811 16.4272C14.5192 16.569 14.6482 16.496 14.7628 16.4028C14.8745 16.3111 14.9247 16.1979 14.929 16.185L17.2931 3.86457L17.2945 3.86027C17.3389 3.65968 17.3303 3.53073 17.3146 3.46912C17.2988 3.40895 17.2902 3.41038 17.2744 3.40035C17.2573 3.39032 17.2028 3.38172 17.1312 3.38459C17.0595 3.38745 16.9678 3.40322 16.8776 3.43903ZM6.81945 11.5586C6.93694 11.9512 7.78801 14.7895 7.97427 15.3899C7.9843 15.4228 7.99146 15.4343 8.00149 15.4629L8.58893 12.8209C8.58893 12.8194 8.58893 12.8194 8.58893 12.818C8.59466 12.7679 8.61042 12.7206 8.63621 12.6776C8.64194 12.6676 8.64911 12.6561 8.65627 12.6475C8.662 12.6375 8.66917 12.6289 8.67633 12.6203L8.67776 12.6189L13.1882 7.31327L6.81945 11.5586ZM8.80671 15.1993L9.99735 14.0961L9.18783 13.4886L8.80671 15.1993Z" fill="currentColor" stroke="currentColor" stroke-width="0.288953" stroke-miterlimit="10" stroke-linejoin="round"/>
<path d="M17.1126 2.64384C16.9349 2.65101 16.7615 2.70115 16.6054 2.76276C16.4521 2.82437 15.5637 3.20406 14.2513 3.76428C12.9403 4.32593 11.2353 5.05665 9.54461 5.7802C6.16467 7.22875 2.84205 8.65293 2.84205 8.65293L2.86641 8.64434C2.86641 8.64434 2.66582 8.71168 2.46236 8.85352C2.36207 8.92373 2.25174 9.01543 2.16291 9.14868C2.07265 9.28192 2.00817 9.47105 2.03253 9.67021C2.1185 10.3723 2.84635 10.5714 2.84635 10.5714L2.84921 10.5729L6.09447 11.6833C6.17757 11.9598 7.07879 14.9686 7.27795 15.6062C7.38684 15.9587 7.49 16.1621 7.59602 16.3011C7.65047 16.3699 7.70635 16.4243 7.76796 16.463C7.79232 16.4788 7.81811 16.4903 7.8439 16.5003C7.84533 16.5003 7.84533 16.5003 7.84533 16.5003C7.84819 16.5017 7.85249 16.5017 7.85536 16.5031L7.84676 16.5017C7.85249 16.5046 7.85822 16.5074 7.86396 16.5103C7.87542 16.5146 7.88258 16.5146 7.89834 16.5175C8.26943 16.6464 8.57748 16.4057 8.57748 16.4057L8.59038 16.3957L10.5834 14.5474L13.82 17.0691L13.8602 17.0877C14.4261 17.3399 14.939 17.1995 15.2227 16.9688C15.5064 16.7381 15.6182 16.4401 15.6182 16.4401L15.6296 16.4086L18.0066 4.01645C18.0682 3.73849 18.0768 3.49921 18.0195 3.28286C17.9622 3.06651 17.8232 2.87739 17.647 2.77422C17.4722 2.66963 17.2902 2.63525 17.1126 2.64384ZM17.1312 3.38459C17.2028 3.38172 17.2573 3.39032 17.2745 3.40035C17.2902 3.41038 17.2988 3.40895 17.3146 3.46912C17.3304 3.53073 17.3389 3.65968 17.2945 3.86027L17.2931 3.86457L14.929 16.1851C14.9247 16.198 14.8746 16.3112 14.7628 16.4029C14.6482 16.496 14.5192 16.5691 14.1811 16.4272L10.6421 13.6677L10.5433 13.5903L10.5404 13.5917L9.483 12.798L15.429 5.8017C15.5222 5.69137 15.5437 5.53806 15.4806 5.40768C15.419 5.27873 15.2858 5.19706 15.1425 5.19993C15.0737 5.20279 15.0064 5.22285 14.9491 5.26154L6.34521 10.9984L3.09422 9.88513C3.09422 9.88513 2.77184 9.70603 2.75608 9.57994C2.75465 9.57421 2.75035 9.57994 2.76755 9.55559C2.78474 9.5298 2.82629 9.48825 2.8793 9.45099C2.98533 9.37792 3.10568 9.3335 3.10568 9.3335L3.11858 9.32921L3.13004 9.32348C3.13004 9.32348 6.45266 7.89786 9.8326 6.45075C11.5233 5.72576 13.2269 4.99647 14.5393 4.43625C15.8503 3.8746 16.7974 3.47199 16.8776 3.43904C16.9679 3.40322 17.0596 3.38746 17.1312 3.38459ZM13.1882 7.31328L8.67778 12.6189L8.67634 12.6203C8.66918 12.6289 8.66202 12.6375 8.65628 12.6475C8.64912 12.6561 8.64196 12.6676 8.63623 12.6776C8.61044 12.7206 8.59467 12.7679 8.58894 12.818C8.58894 12.8195 8.58894 12.8195 8.58894 12.8209L8.0015 15.4629C7.99147 15.4343 7.98431 15.4228 7.97428 15.3899C7.78802 14.7895 6.93694 11.9512 6.81946 11.5586L13.1882 7.31328ZM9.18785 13.4886L9.99737 14.0961L8.80673 15.1993L9.18785 13.4886Z" fill="currentColor"/>
</svg>
