<svg width="24" height="24" viewBox="0 0 24 24" fill="none" xmlns="http://www.w3.org/2000/svg">
<path fill-rule="evenodd" clip-rule="evenodd" d="M17.857 20.4168C19.732 20.4168 21.25 18.8978 21.25 17.0238V14.3238C20.01 14.3238 19.01 13.3238 19.01 12.0848C19.01 10.8448 20.01 9.84576 21.25 9.84576L21.248 7.14276C21.248 5.26876 19.73 3.74976 17.856 3.74976H6.144C4.27 3.74976 2.751 5.26876 2.751 7.14276L2.75 9.93276C3.989 9.93276 4.989 10.8448 4.989 12.0848C4.989 13.3238 3.989 14.3238 2.75 14.3238V17.0238C2.75 18.8978 4.268 20.4168 6.142 20.4168H17.857Z" stroke="currentColor" stroke-width="1.5" stroke-linecap="round" stroke-linejoin="round"/>
<path fill-rule="evenodd" clip-rule="evenodd" d="M11.9993 13.8543L13.7393 14.7693C13.9023 14.8543 14.0933 14.7163 14.0623 14.5353L13.7293 12.5963L15.1383 11.2253C15.2703 11.0963 15.1973 10.8733 15.0153 10.8463L13.0693 10.5633L12.1983 8.79929C12.1173 8.63429 11.8823 8.63429 11.8003 8.79929L10.9293 10.5633L8.98432 10.8463C8.80232 10.8733 8.72932 11.0963 8.86132 11.2253L10.2693 12.5963L9.93632 14.5353C9.90532 14.7163 10.0963 14.8543 10.2593 14.7693L11.9993 13.8543Z" stroke="currentColor" stroke-width="1.5" stroke-linecap="round" stroke-linejoin="round"/>
</svg>
