<svg width="16" height="16" viewBox="0 0 16 16" fill="none" xmlns="http://www.w3.org/2000/svg">
<path fill-rule="evenodd" clip-rule="evenodd" d="M6.58434 10.1375C4.02167 10.1375 1.83301 10.5248 1.83301 12.0768C1.83301 13.6281 4.00767 14.0301 6.58434 14.0301C9.14701 14.0301 11.3357 13.6421 11.3357 12.0908C11.3357 10.5395 9.16101 10.1375 6.58434 10.1375Z" stroke="currentColor" stroke-linecap="round" stroke-linejoin="round"/>
<path fill-rule="evenodd" clip-rule="evenodd" d="M6.5844 7.92395C8.27506 7.92395 9.62973 6.56862 9.62973 4.87862C9.62973 3.18795 8.27506 1.83328 6.5844 1.83328C4.8944 1.83328 3.53906 3.18795 3.53906 4.87862C3.53906 6.56862 4.8944 7.92395 6.5844 7.92395Z" stroke="currentColor" stroke-linecap="round" stroke-linejoin="round"/>
<path d="M12.8021 5.77942V8.45275" stroke="currentColor" stroke-linecap="round" stroke-linejoin="round"/>
<path d="M14.1661 7.11602H11.4395" stroke="currentColor" stroke-linecap="round" stroke-linejoin="round"/>
</svg>
