<svg width="24" height="24" viewBox="0 0 24 24" fill="none" xmlns="http://www.w3.org/2000/svg">
<path fill-rule="evenodd" clip-rule="evenodd" d="M12.471 17.1419C12.3995 17.7277 12.3785 18.3042 12.2186 18.9005C11.964 19.7505 11.2982 20.2704 10.5798 20.2494C10.239 20.2578 9.75937 20.0503 9.43645 19.7788L5.66981 16.7195H3.57138C2.55951 16.7195 1.87791 16.0299 1.74012 14.8938C1.54343 13.4956 1.56236 10.9698 1.74012 9.54336C1.87791 8.55817 2.55951 7.78156 3.57138 7.78156H5.66981L9.35862 4.77464C9.68153 4.5011 10.239 4.24327 10.5798 4.25061C11.2982 4.22965 11.964 4.75054 12.2186 5.59948C12.3606 6.14237 12.3995 6.77331 12.471 7.35918C12.6425 8.72901 12.6425 15.772 12.471 17.1419Z" stroke="currentColor" stroke-width="1.5" stroke-linecap="round" stroke-linejoin="round"/>
<path d="M16.4434 7.06055C17.3514 8.36655 17.8964 10.1185 17.8964 12.0685C17.8964 14.0185 17.3514 15.7695 16.4434 17.0755" stroke="currentColor" stroke-width="1.5" stroke-linecap="round" stroke-linejoin="round"/>
<path d="M19.874 4C21.337 6.104 22.215 8.926 22.215 12.068C22.215 15.21 21.337 18.033 19.874 20.137" stroke="currentColor" stroke-width="1.5" stroke-linecap="round" stroke-linejoin="round"/>
</svg>
