<svg width="24" height="24" viewBox="0 0 24 24" fill="none" xmlns="http://www.w3.org/2000/svg">
<path d="M7.89107 16.3826H5.77872C4.76119 16.3826 4.07507 15.6869 3.93637 14.5392C3.73837 13.1267 3.75742 10.5749 3.93637 9.13281C4.07507 8.13752 4.76119 7.35399 5.77872 7.35399H7.89107L11.6044 4.31622C11.9294 4.03987 12.4917 3.7794 12.8337 3.78681C13.5568 3.76458 14.2271 4.29081 14.4844 5.14952C14.6262 5.69693 14.6654 6.3354 14.7374 6.92622C14.8094 7.50116 14.8518 7.44928 14.8634 9.18258" stroke="currentColor" stroke-width="1.5" stroke-linecap="round" stroke-linejoin="round"/>
<path d="M14.8603 14.1915C14.8412 15.5278 14.7957 16.3409 14.7374 16.81C14.6654 17.4008 14.6443 17.9842 14.4844 18.5856C14.2271 19.4454 13.5568 19.9706 12.8337 19.9484C12.4917 19.9568 12.0078 19.7482 11.6827 19.4729L10.2861 18.3336" stroke="currentColor" stroke-width="1.5" stroke-linecap="round" stroke-linejoin="round"/>
<path d="M20.9963 3.29407L3.84863 20.4417" stroke="currentColor" stroke-width="1.5" stroke-linecap="round" stroke-linejoin="round"/>
</svg>
