<svg width="17" height="17" viewBox="0 0 17 17" fill="none" xmlns="http://www.w3.org/2000/svg">
<g clip-path="url(#clip0)">
<path d="M16.1444 8.42936C16.1444 12.4775 12.8547 15.7672 8.80656 15.7672C7.5604 15.7672 6.39322 15.4387 5.3652 14.8896L1.86491 15.7571C1.75459 15.7847 1.638 15.7509 1.55902 15.6694C1.48003 15.5879 1.44994 15.4713 1.48129 15.3622L2.42155 12.0049C1.82605 10.9455 1.46875 9.73068 1.46875 8.42936C1.46875 4.38122 4.75841 1.09155 8.80656 1.09155C12.8547 1.09155 16.1444 4.38122 16.1444 8.42936ZM2.10687 8.42936C2.10687 9.67051 2.44537 10.8289 3.03335 11.8256C3.07723 11.9008 3.08851 11.9911 3.06469 12.0738L2.24353 15.0062L5.30753 14.2464C5.38651 14.2276 5.46925 14.2389 5.54071 14.2778C6.5073 14.8194 7.61932 15.129 8.80656 15.129C12.5099 15.129 15.5062 12.1327 15.5062 8.42936C15.5062 4.72598 12.5099 1.72968 8.80656 1.72968C5.10318 1.72968 2.10687 4.72598 2.10687 8.42936ZM6.51608 4.60813H6.51733C6.52235 4.60813 6.66903 4.58682 6.83326 4.6633C6.99875 4.74102 7.12537 4.90024 7.21939 5.12214C7.29838 5.31145 7.43127 5.63239 7.55162 5.91949C7.61054 6.06241 7.66696 6.19655 7.71084 6.30061C7.75472 6.40341 7.79484 6.49367 7.78982 6.48364V6.4849C7.85627 6.61653 7.92146 6.86852 7.80612 7.09669C7.74845 7.21078 7.69454 7.33364 7.57419 7.4728C7.48894 7.57059 7.38864 7.70473 7.27456 7.81631L7.2733 7.81756C7.25826 7.83261 7.26578 7.82258 7.25826 7.83135C7.36984 8.01815 7.72338 8.57479 8.2261 9.01859C8.5646 9.31697 8.87426 9.51003 9.12123 9.64042C9.36821 9.7708 9.53495 9.82847 9.6716 9.89492C9.71548 9.91748 9.70545 9.91247 9.70796 9.91372C9.81828 9.78835 10.1806 9.36085 10.2696 9.2267C10.3649 9.08629 10.5279 8.96719 10.6934 8.94838C10.8588 8.92958 10.9729 8.97847 11.0669 9.01232C11.2149 9.06498 11.4556 9.18282 11.7339 9.31446C12.0122 9.44735 12.2893 9.58275 12.3871 9.63164C12.5626 9.71815 12.7306 9.72441 12.8798 9.96888C12.95 10.0842 12.9437 10.1431 12.95 10.2184C12.9562 10.2948 12.955 10.3763 12.9475 10.4704C12.9312 10.6559 12.886 10.8816 12.797 11.1273C12.6742 11.4683 12.3946 11.6927 12.1088 11.8732C11.8229 12.0538 11.5346 12.1791 11.2726 12.218C10.9228 12.2694 10.4564 12.2945 9.94365 12.134C9.66784 12.0462 9.30302 11.9284 8.84041 11.7316C7.83621 11.3028 7.02758 10.6032 6.45214 9.99646C6.16379 9.69433 5.93562 9.41475 5.77139 9.20163C5.60716 8.9885 5.48555 8.81048 5.49307 8.82176C5.40281 8.70266 4.65937 7.77744 4.65937 6.70429C4.65937 5.67627 5.25989 5.0908 5.40406 4.93535C5.64351 4.67709 5.93562 4.60061 6.13997 4.60061C6.2691 4.60061 6.39823 4.60312 6.51608 4.60813ZM5.87169 5.37037C5.66984 5.58726 5.2975 5.90194 5.2975 6.70429C5.2975 7.46277 5.90303 8.30524 6.00207 8.43563C6.05723 8.5096 6.12493 8.6124 6.27788 8.81173C6.43083 9.01107 6.64646 9.27434 6.91475 9.55767C7.45258 10.1243 8.20479 10.7662 9.09114 11.1436C9.52742 11.3304 9.86467 11.4395 10.1355 11.5247C10.5254 11.6476 10.8801 11.6313 11.1798 11.5874C11.2788 11.5723 11.5471 11.4733 11.7678 11.3341C11.9884 11.195 12.1639 11.0032 12.1978 10.9104C12.2655 10.7198 12.3006 10.5431 12.3119 10.4139C12.3156 10.3688 12.3144 10.3375 12.3131 10.3099C12.2968 10.3099 12.2354 10.2673 12.105 10.2021C12.0135 10.1582 11.7352 10.0215 11.4594 9.8899C11.1848 9.75952 10.8764 9.62161 10.8513 9.61284V9.61158C10.7974 9.59278 10.7987 9.59403 10.7924 9.59152C10.6294 9.82972 10.2922 10.2159 10.1781 10.345L10.1768 10.3462C10.0916 10.4428 9.95744 10.5368 9.80198 10.5556C9.64527 10.5744 9.51238 10.528 9.38952 10.4666C9.33812 10.4415 9.10619 10.3538 8.82286 10.2046C8.53952 10.0554 8.18473 9.83348 7.80486 9.4975C7.20059 8.96468 6.81069 8.33157 6.69285 8.13098C6.60384 7.98054 6.57876 7.77995 6.63392 7.63202C6.68909 7.48534 6.77684 7.41137 6.82699 7.36248C6.88215 7.30731 6.98872 7.17442 7.09152 7.05532C7.16047 6.97634 7.16925 6.94375 7.23695 6.8096C7.2382 6.80584 7.24071 6.80333 7.24196 6.80333C7.23945 6.80208 7.23318 6.79581 7.22065 6.77074V6.76948C7.19181 6.71432 7.16799 6.65414 7.12286 6.54884C7.07773 6.44353 7.02257 6.30813 6.96239 6.16395C6.84204 5.87686 6.70789 5.55466 6.63016 5.37037C6.60133 5.29891 6.57876 5.26506 6.56748 5.24877C6.5562 5.24877 6.53112 5.24751 6.48599 5.245C6.38444 5.24124 6.26283 5.23874 6.13997 5.23874C6.09359 5.23874 5.97825 5.25629 5.87169 5.37037Z" fill="currentColor"/>
<path d="M8.80657 1.09155C4.75842 1.09155 1.46875 4.38122 1.46875 8.42937C1.46875 9.7307 1.82605 10.9455 2.42155 12.0049L1.48129 15.3623C1.44994 15.4713 1.48003 15.5879 1.55902 15.6694C1.638 15.7509 1.75459 15.7847 1.86491 15.7572L5.3652 14.8896C6.39323 15.4387 7.56041 15.7672 8.80657 15.7672C12.8547 15.7672 16.1444 12.4775 16.1444 8.42937C16.1444 4.38122 12.8547 1.09155 8.80657 1.09155ZM8.80657 1.72968C12.51 1.72968 15.5063 4.72599 15.5063 8.42937C15.5063 12.1328 12.51 15.1291 8.80657 15.1291C7.61933 15.1291 6.50731 14.8194 5.54072 14.2778C5.46926 14.2389 5.38652 14.2277 5.30753 14.2465L2.24353 15.0062L3.06469 12.0738C3.08851 11.9911 3.07723 11.9008 3.03335 11.8256C2.44537 10.8289 2.10688 9.67052 2.10688 8.42937C2.10688 4.72599 5.10318 1.72968 8.80657 1.72968ZM6.13998 4.60062C5.93563 4.60062 5.64352 4.67709 5.40407 4.93535C5.25989 5.09081 4.65938 5.67628 4.65938 6.7043C4.65938 7.77746 5.40281 8.70268 5.49308 8.82178C5.48556 8.81049 5.60716 8.98852 5.7714 9.20164C5.93563 9.41477 6.1638 9.69434 6.45215 9.99648C7.02759 10.6033 7.83622 11.3028 8.84042 11.7316C9.30303 11.9284 9.66785 12.0463 9.94366 12.134C10.4564 12.2945 10.9228 12.2694 11.2726 12.218C11.5346 12.1791 11.8229 12.0538 12.1088 11.8732C12.3946 11.6927 12.6742 11.4683 12.797 11.1273C12.8861 10.8816 12.9312 10.6559 12.9475 10.4704C12.955 10.3763 12.9563 10.2949 12.95 10.2184C12.9437 10.1432 12.95 10.0842 12.8798 9.9689C12.7306 9.72443 12.5626 9.71816 12.3871 9.63166C12.2893 9.58276 12.0122 9.44736 11.7339 9.31447C11.4556 9.18284 11.2149 9.06499 11.067 9.01234C10.9729 8.97849 10.8589 8.92959 10.6934 8.9484C10.5279 8.9672 10.3649 9.0863 10.2696 9.22672C10.1806 9.36086 9.81829 9.78837 9.70797 9.91374C9.70546 9.91248 9.71549 9.9175 9.67161 9.89493C9.53496 9.82849 9.36822 9.77082 9.12124 9.64043C8.87427 9.51005 8.56461 9.31698 8.22611 9.0186C7.72339 8.5748 7.36985 8.01816 7.25827 7.83136C7.26579 7.82259 7.25827 7.83262 7.27331 7.81757L7.27457 7.81632C7.38865 7.70474 7.48895 7.5706 7.5742 7.47281C7.69455 7.33365 7.74846 7.21079 7.80613 7.0967C7.92147 6.86853 7.85628 6.61654 7.78983 6.48491V6.48365C7.79485 6.49368 7.75473 6.40342 7.71085 6.30061C7.66697 6.19656 7.61055 6.06241 7.55163 5.91949C7.43128 5.6324 7.29839 5.31146 7.2194 5.12215C7.12538 4.90025 6.99876 4.74103 6.83327 4.6633C6.66904 4.58683 6.52235 4.60814 6.51734 4.60814H6.51609C6.39824 4.60313 6.26911 4.60062 6.13998 4.60062ZM6.13998 5.23874C6.26284 5.23874 6.38445 5.24125 6.486 5.24501C6.59131 5.25003 6.58379 5.25128 6.56373 5.24125C6.54367 5.23247 6.57125 5.22871 6.63017 5.37038C6.7079 5.55467 6.84204 5.87687 6.9624 6.16396C7.02258 6.30814 7.07774 6.44353 7.12287 6.54884C7.168 6.65415 7.19182 6.71433 7.22066 6.76949V6.77075C7.24824 6.82591 7.24573 6.79081 7.23696 6.80961C7.16926 6.94376 7.16048 6.97635 7.09153 7.05533C6.98873 7.17443 6.88216 7.30732 6.827 7.36249C6.77685 7.41138 6.6891 7.48535 6.63393 7.63203C6.57877 7.77996 6.60385 7.98055 6.69286 8.131C6.8107 8.33158 7.2006 8.9647 7.80487 9.49751C8.18474 9.8335 8.53953 10.0554 8.82287 10.2046C9.1062 10.3538 9.33813 10.4415 9.38953 10.4666C9.51239 10.528 9.64528 10.5744 9.802 10.5556C9.95745 10.5368 10.0916 10.4428 10.1768 10.3463L10.1781 10.345C10.2922 10.2159 10.6294 9.82974 10.7924 9.59154C10.7987 9.59405 10.7974 9.59279 10.8513 9.6116V9.61285C10.8764 9.62163 11.1848 9.75953 11.4594 9.88992C11.7352 10.0216 12.0135 10.1582 12.105 10.2021C12.2354 10.2673 12.2968 10.3099 12.3131 10.3099C12.3144 10.3375 12.3156 10.3688 12.3119 10.414C12.3006 10.5431 12.2655 10.7199 12.1978 10.9104C12.1639 11.0032 11.9884 11.195 11.7678 11.3342C11.5471 11.4733 11.2788 11.5724 11.1798 11.5874C10.8802 11.6313 10.5254 11.6476 10.1355 11.5247C9.86468 11.4395 9.52744 11.3304 9.09116 11.1436C8.2048 10.7662 7.45259 10.1244 6.91476 9.55769C6.64647 9.27436 6.43084 9.01108 6.27789 8.81175C6.12494 8.61241 6.05724 8.50961 6.00208 8.43564C5.90303 8.30526 5.2975 7.46278 5.2975 6.7043C5.2975 5.90194 5.66985 5.58727 5.87169 5.37038C5.97826 5.25629 6.0936 5.23874 6.13998 5.23874Z" fill="currentColor"/>
</g>
<defs>
<clipPath id="clip0">
<rect width="16.0472" height="16.0472" fill="currentColor" transform="translate(0.783203 0.405762)"/>
</clipPath>
</defs>
</svg>
