<svg width="326" height="326" viewBox="0 0 326 326" fill="none" xmlns="http://www.w3.org/2000/svg">
<path d="M163.253 0H162.75V2.51543H163.253V0Z" fill="#22282D"/>
<path d="M188.932 1.54036L188.529 4.03064L189.027 4.11113L189.43 1.62086L188.932 1.54036Z" fill="#22282D"/>
<path d="M213.133 7.90053L212.355 10.2928L212.834 10.4483L213.611 8.05599L213.133 7.90053Z" fill="#22282D"/>
<path d="M236.775 17.6486L235.633 19.8899L236.081 20.1183L237.223 17.877L236.775 17.6486Z" fill="#22282D"/>
<path d="M259.209 30.7966L257.725 32.8341L258.132 33.1309L259.616 31.0934L259.209 30.7966Z" fill="#22282D"/>
<path d="M278.079 47.5697L276.301 49.3484L276.657 49.7041L278.435 47.9255L278.079 47.5697Z" fill="#22282D"/>
<path d="M294.728 66.9871L292.693 68.4656L292.989 68.8726L295.024 67.3941L294.728 66.9871Z" fill="#22282D"/>
<path d="M308.12 88.7753L305.879 89.9172L306.107 90.3655L308.349 89.2235L308.12 88.7753Z" fill="#22282D"/>
<path d="M317.937 112.39L315.545 113.167L315.7 113.645L318.093 112.868L317.937 112.39Z" fill="#22282D"/>
<path d="M323.953 137.255L321.469 137.648L321.547 138.145L324.032 137.752L323.953 137.255Z" fill="#22282D"/>
<path d="M325.998 162.748H323.482V163.251H325.998V162.748Z" fill="#22282D"/>
<path d="M321.547 187.855L321.469 188.352L323.953 188.746L324.032 188.249L321.547 187.855Z" fill="#22282D"/>
<path d="M315.706 212.356L315.551 212.835L317.943 213.612L318.099 213.133L315.706 212.356Z" fill="#22282D"/>
<path d="M306.107 235.632L305.879 236.08L308.12 237.222L308.349 236.774L306.107 235.632Z" fill="#22282D"/>
<path d="M292.981 257.125L292.686 257.532L294.721 259.01L295.016 258.603L292.981 257.125Z" fill="#22282D"/>
<path d="M276.653 276.3L276.297 276.656L278.076 278.434L278.431 278.078L276.653 276.3Z" fill="#22282D"/>
<path d="M257.528 292.687L257.121 292.983L258.6 295.018L259.007 294.722L257.528 292.687Z" fill="#22282D"/>
<path d="M236.085 305.877L235.637 306.106L236.779 308.347L237.227 308.119L236.085 305.877Z" fill="#22282D"/>
<path d="M212.834 315.547L212.355 315.703L213.133 318.095L213.611 317.94L212.834 315.547Z" fill="#22282D"/>
<path d="M188.356 321.468L187.859 321.547L188.253 324.031L188.75 323.952L188.356 321.468Z" fill="#22282D"/>
<path d="M163.253 323.484H162.75V326H163.253V323.484Z" fill="#22282D"/>
<path d="M137.649 321.468L137.256 323.952L137.753 324.031L138.146 321.546L137.649 321.468Z" fill="#22282D"/>
<path d="M113.168 315.551L112.391 317.943L112.869 318.099L113.646 315.706L113.168 315.551Z" fill="#22282D"/>
<path d="M89.9174 305.878L88.7754 308.12L89.2236 308.348L90.3656 306.107L89.9174 305.878Z" fill="#22282D"/>
<path d="M68.4668 292.684L66.9883 294.719L67.3953 295.015L68.8738 292.98L68.4668 292.684Z" fill="#22282D"/>
<path d="M49.3431 276.296L47.5645 278.075L47.9202 278.43L49.6989 276.652L49.3431 276.296Z" fill="#22282D"/>
<path d="M33.0194 257.127L30.9844 258.605L31.2801 259.012L33.3151 257.534L33.0194 257.127Z" fill="#22282D"/>
<path d="M19.8975 235.638L17.6562 236.78L17.8846 237.228L20.1259 236.086L19.8975 235.638Z" fill="#22282D"/>
<path d="M10.2947 212.356L7.90234 213.133L8.05781 213.612L10.4501 212.834L10.2947 212.356Z" fill="#22282D"/>
<path d="M4.45126 187.855L1.9668 188.249L2.0455 188.746L4.52996 188.352L4.45126 187.855Z" fill="#22282D"/>
<path d="M2.51543 162.748H0V163.251H2.51543V162.748Z" fill="#22282D"/>
<path d="M2.0455 137.253L1.9668 137.75L4.45126 138.144L4.52996 137.647L2.0455 137.253Z" fill="#22282D"/>
<path d="M8.0539 112.387L7.89844 112.865L10.2908 113.643L10.4462 113.164L8.0539 112.387Z" fill="#22282D"/>
<path d="M17.8749 88.7742L17.6465 89.2224L19.8877 90.3644L20.1161 89.9161L17.8749 88.7742Z" fill="#22282D"/>
<path d="M31.2742 66.99L30.9785 67.397L33.0135 68.8755L33.3092 68.4685L31.2742 66.99Z" fill="#22282D"/>
<path d="M47.9241 47.5665L47.5684 47.9222L49.347 49.7009L49.7028 49.3452L47.9241 47.5665Z" fill="#22282D"/>
<path d="M67.5306 30.8599L67.123 31.1567L68.6072 33.1942L69.0147 32.8974L67.5306 30.8599Z" fill="#22282D"/>
<path d="M89.2197 17.6509L88.7715 17.8793L89.9135 20.1205L90.3617 19.8921L89.2197 17.6509Z" fill="#22282D"/>
<path d="M112.869 7.90081L112.391 8.05627L113.168 10.4486L113.646 10.2931L112.869 7.90081Z" fill="#22282D"/>
<path d="M137.753 1.96952L137.256 2.04822L137.649 4.53268L138.146 4.45398L137.753 1.96952Z" fill="#22282D"/>
<path d="M163.253 0H162.75V2.51543H163.253V0Z" fill="#22282D"/>
<g opacity="0.5">
<path d="M168.051 148.163C171.342 134.724 182.449 85.1974 187.592 62.1138L187.249 58.3428L186.22 61.0854L184.163 66.5706L181.226 73.0842V74.4555L180.735 79.5979L179.707 84.3974L178.678 87.4829L177.307 100.167L175.936 104.967L169.422 139.249C167.594 147.82 164.76 161.602 168.051 148.163Z" fill="#D9DADB"/>
<path d="M180.05 189.302L186.221 193.073L182.107 193.416L174.222 192.73L167.708 192.044L156.395 191.359L144.396 190.673V189.987V189.302L143.71 188.959H141.311V188.273L141.653 187.588L164.965 188.616L180.05 189.302Z" fill="#D9DADB"/>
<path d="M114.227 201.986L94.6855 201.644L97.771 203.358L102.571 204.729L113.198 206.443L145.424 207.472L239.358 208.5L241.072 204.386L228.73 204.043H214.674L184.163 203.358L148.166 202.672L114.227 201.986Z" fill="#D9DADB"/>
<path d="M137.882 169.761C130.477 175.52 116.741 178.103 110.798 178.674L109.729 184.159H107.713L107.027 184.502L107.37 185.531L108.056 186.559L138.224 186.216L137.882 169.761Z" fill="#D9DADB"/>
<path d="M94 201.644C95.9427 202.901 102.708 205.62 114.227 206.443C125.702 207.263 201.873 208.151 238.941 208.496C239.203 208.499 239.432 208.351 239.549 208.117L241.415 204.386M94 201.644L94.914 198.597C94.9848 198.361 95.1766 198.181 95.4166 198.126L103.866 196.176C103.916 196.164 103.968 196.158 104.02 196.158H122.454M94 201.644L241.415 204.386M241.415 204.386L242.358 195.891C242.404 195.485 242.086 195.13 241.677 195.13H238.329M122.454 196.158H149.538L168.736 195.13H196.505M122.454 196.158V193.416M122.454 193.416H120.397C119.832 193.416 119.51 192.771 119.849 192.319V192.319C119.978 192.146 120.182 192.044 120.397 192.044H132.874C133.01 192.044 133.142 192.004 133.255 191.929L134.966 190.788C135.079 190.713 135.211 190.673 135.347 190.673H138.224M122.454 193.416H182.449M143.71 190.673L144.368 190.203C144.911 189.815 144.637 188.959 143.97 188.959H141.921C141.316 188.959 141.013 188.227 141.441 187.799V187.799C141.576 187.665 141.761 187.593 141.952 187.601L166.336 188.69M143.71 190.673H140.967M143.71 190.673C148.929 190.673 157.613 191.246 165.831 191.911M187.248 193.416L180.193 189.384C180.098 189.33 179.992 189.299 179.883 189.294L177.992 189.21M187.248 193.416H182.449M187.248 193.416H193.076M196.505 195.13L194.991 193.617C194.863 193.488 194.688 193.416 194.506 193.416H193.076M196.505 195.13L195.843 184.159M196.505 195.13H224.616M182.449 193.416L177.992 189.21M182.449 193.416C180.033 193.171 176.805 192.861 173.192 192.538M177.992 189.21L173.192 188.996M193.076 193.416L193.012 191.911M187.248 58L187.993 58.4966C188.172 58.6157 188.284 58.8115 188.297 59.0258L188.401 60.7426M187.248 58C186.231 61.1658 183.602 68.6048 181.156 73.2779C181.104 73.377 181.078 73.4829 181.077 73.5947C181.06 76.7568 180.563 83.4911 178.678 86.4544M187.248 58L188.277 81.8969M178.678 86.4544C178.221 91.9396 177.032 103.321 175.935 104.967M178.678 86.4544L188.277 81.8969M175.935 104.967L189.048 99.8246M175.935 104.967L172.48 122.794M160.851 182.788H158.451C158.072 182.788 157.765 183.095 157.765 183.474V183.736C157.765 183.995 157.912 184.233 158.144 184.349L159.684 185.119C159.775 185.164 159.875 185.189 159.977 185.191L181.763 185.645M160.851 182.788H190.677C191.055 182.788 191.362 183.095 191.362 183.474V185.845M160.851 182.788L164.306 164.961M192.752 185.874L191.362 185.845M192.752 185.874L191.785 163.419M192.752 185.874L193.012 191.911M191.362 185.845L181.763 185.645M188.277 81.8969L189.048 99.8246M189.048 99.8246L189.86 118.68M189.86 118.68L172.48 122.794M189.86 118.68L190.819 140.964M172.48 122.794L164.306 164.961M190.819 140.964L168.736 144.049M190.819 140.964L191.785 163.419M191.785 163.419L164.306 164.961M188.401 60.7426C189.38 62.4798 190.367 64.2707 191.362 66.1169M188.401 60.7426L188.725 66.1169M195.843 184.159C199.766 188.71 225.258 191.236 238.408 191.992C238.877 192.019 239.223 191.568 239.096 191.116C222.79 133.448 206.196 93.6346 191.362 66.1169M195.843 184.159L192.37 126.565M191.362 66.1169C195.005 77.01 200.307 104.35 192.37 126.565M192.37 126.565L190.547 96.3409M188.725 66.1169L238.329 195.13M188.725 66.1169L190.547 96.3409M238.329 195.13H224.616M190.547 96.3409L224.616 195.13M138.224 190.673H140.967M138.224 190.673C138.209 189.288 138.193 187.855 138.176 186.38M135.139 62.7995L135.313 62.7417C135.742 62.5984 136.19 62.8822 136.213 63.3347C138.054 98.884 141.511 172.721 140.967 190.673M135.139 62.7995C134.061 66.8425 131.349 72.5409 130.063 75.014C130.019 75.0995 129.994 75.1898 129.987 75.2859C129.691 79.663 128.275 85.682 127.597 88.1686M135.139 62.7995C135.549 63.6206 135.95 71.6919 136.321 83.7118M138.176 186.38H137.196M138.176 186.38C138.101 179.925 138.01 172.658 137.905 164.961M137.196 186.38H108.151C107.884 186.38 107.641 186.225 107.529 185.983L107.136 185.133C106.925 184.679 107.257 184.159 107.758 184.159H109.77M137.196 186.38L136.66 184.643C136.571 184.355 136.305 184.159 136.004 184.159H109.77M109.77 184.159C110.932 179.295 112.38 173.108 113.925 166.333M125.54 107.024C126.454 102.453 128.145 92.2825 127.597 88.1686M125.54 107.024L136.8 101.882M125.54 107.024C125.308 110.504 124.344 116.518 122.968 123.822M127.597 88.1686L136.321 83.7118M136.321 83.7118C136.487 89.0791 136.648 95.2336 136.8 101.882M136.8 101.882C136.933 107.632 137.059 113.752 137.18 120.051M122.968 123.822L137.18 120.051M122.968 123.822C121.749 130.297 120.207 137.786 118.566 145.42M137.18 120.051C137.319 127.338 137.449 134.864 137.569 142.335M118.566 145.42L137.569 142.335M118.566 145.42C117.045 152.495 115.439 159.696 113.925 166.333M137.569 142.335C137.692 150.044 137.805 157.694 137.905 164.961M113.925 166.333L137.905 164.961M231.13 198.215L103.942 197.53M173.192 188.996V192.538M173.192 188.996L166.336 188.69M173.192 192.538C170.86 192.33 168.368 192.116 165.831 191.911M166.336 188.69L165.831 191.911M193.012 191.911L181.763 185.645" stroke="black" stroke-width="0.685649"/>
</g>
</svg>
