<svg width="325" height="325" viewBox="0 0 325 325" fill="none" xmlns="http://www.w3.org/2000/svg">
<path d="M162.753 0H162.252V2.50772H162.753V0Z" fill="#22282D"/>
<path d="M188.352 1.53555L187.951 4.01819L188.448 4.09844L188.849 1.6158L188.352 1.53555Z" fill="#22282D"/>
<path d="M212.478 7.87625L211.703 10.2612L212.18 10.4162L212.955 8.03124L212.478 7.87625Z" fill="#22282D"/>
<path d="M236.049 17.5945L234.91 19.8289L235.357 20.0566L236.496 17.8222L236.049 17.5945Z" fill="#22282D"/>
<path d="M258.413 30.7022L256.934 32.7334L257.34 33.0293L258.819 30.9981L258.413 30.7022Z" fill="#22282D"/>
<path d="M277.226 47.4238L275.453 49.197L275.808 49.5517L277.581 47.7784L277.226 47.4238Z" fill="#22282D"/>
<path d="M293.824 66.7816L291.795 68.2556L292.09 68.6614L294.118 67.1874L293.824 66.7816Z" fill="#22282D"/>
<path d="M307.176 88.5029L304.941 89.6414L305.169 90.0882L307.404 88.9498L307.176 88.5029Z" fill="#22282D"/>
<path d="M316.963 112.045L314.578 112.82L314.733 113.297L317.118 112.522L316.963 112.045Z" fill="#22282D"/>
<path d="M322.961 136.834L320.484 137.226L320.563 137.722L323.04 137.329L322.961 136.834Z" fill="#22282D"/>
<path d="M324.998 162.249H322.49V162.751H324.998V162.249Z" fill="#22282D"/>
<path d="M320.563 187.279L320.484 187.774L322.961 188.167L323.04 187.671L320.563 187.279Z" fill="#22282D"/>
<path d="M314.737 211.705L314.582 212.182L316.967 212.957L317.122 212.48L314.737 211.705Z" fill="#22282D"/>
<path d="M305.169 234.909L304.941 235.356L307.176 236.495L307.403 236.048L305.169 234.909Z" fill="#22282D"/>
<path d="M292.082 256.336L291.787 256.742L293.816 258.216L294.111 257.81L292.082 256.336Z" fill="#22282D"/>
<path d="M275.804 275.452L275.449 275.807L277.223 277.58L277.577 277.225L275.804 275.452Z" fill="#22282D"/>
<path d="M256.74 291.79L256.334 292.084L257.808 294.113L258.214 293.818L256.74 291.79Z" fill="#22282D"/>
<path d="M235.361 304.939L234.914 305.167L236.053 307.401L236.499 307.173L235.361 304.939Z" fill="#22282D"/>
<path d="M212.18 314.58L211.703 314.734L212.478 317.119L212.955 316.965L212.18 314.58Z" fill="#22282D"/>
<path d="M187.779 320.482L187.283 320.56L187.676 323.037L188.171 322.959L187.779 320.482Z" fill="#22282D"/>
<path d="M162.753 322.492H162.252V325H162.753V322.492Z" fill="#22282D"/>
<path d="M137.228 320.482L136.836 322.958L137.331 323.037L137.724 320.56L137.228 320.482Z" fill="#22282D"/>
<path d="M112.82 314.583L112.045 316.968L112.522 317.123L113.297 314.738L112.82 314.583Z" fill="#22282D"/>
<path d="M89.6424 304.94L88.5039 307.175L88.9508 307.402L90.0893 305.168L89.6424 304.94Z" fill="#22282D"/>
<path d="M68.2572 291.786L66.7832 293.815L67.189 294.11L68.663 292.081L68.2572 291.786Z" fill="#22282D"/>
<path d="M49.1931 275.448L47.4199 277.222L47.7746 277.576L49.5478 275.803L49.1931 275.448Z" fill="#22282D"/>
<path d="M32.9175 256.338L30.8887 257.812L31.1835 258.218L33.2123 256.744L32.9175 256.338Z" fill="#22282D"/>
<path d="M19.836 234.915L17.6016 236.053L17.8293 236.5L20.0637 235.362L19.836 234.915Z" fill="#22282D"/>
<path d="M10.2639 211.704L7.87891 212.479L8.03389 212.956L10.4189 212.181L10.2639 211.704Z" fill="#22282D"/>
<path d="M4.43778 187.279L1.96094 187.671L2.0394 188.167L4.51624 187.774L4.43778 187.279Z" fill="#22282D"/>
<path d="M2.50772 162.249H0V162.751H2.50772V162.249Z" fill="#22282D"/>
<path d="M2.0394 136.832L1.96094 137.328L4.43778 137.72L4.51624 137.225L2.0394 136.832Z" fill="#22282D"/>
<path d="M8.02803 112.042L7.87305 112.519L10.258 113.294L10.413 112.817L8.02803 112.042Z" fill="#22282D"/>
<path d="M17.8214 88.5018L17.5938 88.9487L19.8281 90.0872L20.0558 89.6403L17.8214 88.5018Z" fill="#22282D"/>
<path d="M31.1796 66.7846L30.8848 67.1903L32.9136 68.6643L33.2083 68.2585L31.1796 66.7846Z" fill="#22282D"/>
<path d="M47.7765 47.4206L47.4219 47.7753L49.1951 49.5485L49.5497 49.1939L47.7765 47.4206Z" fill="#22282D"/>
<path d="M67.3223 30.7652L66.916 31.0612L68.3956 33.0924L68.8018 32.7965L67.3223 30.7652Z" fill="#22282D"/>
<path d="M88.9449 17.5966L88.498 17.8243L89.6365 20.0587L90.0834 19.831L88.9449 17.5966Z" fill="#22282D"/>
<path d="M112.522 7.87663L112.045 8.03162L112.82 10.4166L113.297 10.2616L112.522 7.87663Z" fill="#22282D"/>
<path d="M137.331 1.96353L136.836 2.04199L137.228 4.51883L137.724 4.44038L137.331 1.96353Z" fill="#22282D"/>
<path d="M162.753 0H162.252V2.50772H162.753V0Z" fill="#22282D"/>
<g opacity="0.5">
<path d="M82.7821 150.285L81.8098 151.905L73.7079 154.174L69.4948 155.47L66.5781 157.091C68.1985 159.359 218.031 153.526 291.813 154.498L290.193 152.229H287.924L267.831 150.933L227.646 148.665H144.681L144.033 150.285H82.7821Z" fill="#22282D" fill-opacity="0.17"/>
<path d="M39.0312 175.239L39.3553 178.48L108.384 179.128L110.329 174.915H39.3553L39.0312 175.239Z" fill="#D9DADB"/>
<path d="M229.589 178.804C227.431 179.142 224.08 179.776 224.08 179.776L294.729 180.1V176.86C294.729 176.86 265.25 175.813 246.442 177.184C239.848 177.664 236.122 177.783 229.589 178.804Z" fill="#D9DADB"/>
<path d="M47.7812 175.005H110.329L109.032 177.508" stroke="#22282D" stroke-width="0.648158" stroke-linecap="round"/>
<path d="M252.6 162.365H287.276" stroke="#22282D" stroke-width="0.648158" stroke-linecap="round"/>
<path d="M202.368 163.014V167.227H208.849M202.368 163.014V158.477M202.368 163.014H195.562M222.136 167.227H229.266V163.014H243.85V161.393L238.989 158.477H222.136M222.136 167.227V158.477M222.136 167.227H215.331M222.136 158.477H215.331M215.331 158.477V167.227M215.331 158.477H208.849M215.331 167.227H208.849M208.849 167.227V158.477M208.849 158.477H202.368M202.368 158.477H195.562M195.562 163.014V158.477M195.562 163.014H189.08M195.562 158.477H189.08M189.08 163.014V158.477M189.08 163.014H182.599M189.08 158.477H182.599M182.599 163.014V158.477M182.599 163.014H176.117M182.599 158.477H176.117M176.117 163.014V158.477M176.117 163.014H136.904M176.117 158.477H136.904M124.913 163.014V158.477M124.913 163.014H131.07M124.913 163.014H95.0974M124.913 158.477H131.07M124.913 158.477H95.0974M131.07 163.014V158.477M131.07 163.014H136.904M131.07 158.477H136.904M136.904 163.014V158.477M90.2362 163.014H85.375V158.477H90.2362M90.2362 163.014V158.477M90.2362 163.014H95.0974M90.2362 158.477H95.0974M95.0974 163.014V158.477" stroke="#22282D" stroke-width="0.648158"/>
<path d="M195.237 148.43C218.516 147.654 268.674 150.684 290.042 152.307C290.145 152.315 290.236 152.343 290.319 152.404C293.507 154.772 294.569 171.222 294.72 179.856C294.726 180.22 294.431 180.512 294.068 180.509L39.6745 178.574C39.3184 178.572 39.0312 178.282 39.0312 177.926V175.329C39.0312 174.971 39.3214 174.68 39.6794 174.68H42.3537C42.51 174.68 42.6611 174.624 42.779 174.521L49.9406 168.294C50.0126 168.231 50.0976 168.185 50.1894 168.159L67.1396 163.362C67.197 163.346 67.2564 163.338 67.3161 163.338H81.4856C81.8436 163.338 82.1338 163.047 82.1338 162.689V157.841C82.1338 157.478 81.8361 157.186 81.4734 157.193L67.4291 157.458C66.7624 157.47 66.5522 156.662 67.1619 156.392C71.6346 154.41 78.1315 152.807 81.6129 152.099C81.917 152.037 82.1338 151.771 82.1338 151.461V151.017C82.1338 150.661 82.4204 150.372 82.7761 150.369L108.06 150.141L118.107 150.05M195.237 148.43V144.217M195.237 148.43H183.895M195.237 144.217H200.367C200.959 144.217 201.142 143.617 200.601 143.376C198.12 142.269 192.678 140.767 182.598 139.356M195.237 144.217H183.895M182.598 139.356V137.704C182.598 137.359 182.327 137.074 181.982 137.057L179.033 136.911M182.598 139.356L179.033 139.217M156.348 135.791L148.275 132.229C147.628 131.944 147.841 130.975 148.548 130.988L158.303 131.166C159.059 131.179 159.187 130.259 158.446 130.106C149.517 128.266 134.753 126.843 121.945 130.647C121.344 130.826 121.36 131.618 121.972 131.758C125.56 132.58 131.895 133.497 138.654 132.892C138.78 132.881 138.907 132.906 139.019 132.965L142.181 134.639C142.77 134.951 142.566 135.85 141.9 135.878C130.249 136.373 108.516 138.333 94.6056 143.07C93.9332 143.299 94.1059 144.217 94.8163 144.217H118.107M156.348 135.791L157.473 138.041C157.579 138.252 157.791 138.389 158.027 138.398L161.533 138.535M156.348 135.791L161.533 136.047M118.107 144.217V150.05M118.107 144.217H126.857M118.107 150.05H126.857M126.857 144.217V150.05M126.857 144.217H134.635M126.857 150.05H134.635M134.635 144.217V150.05M134.635 144.217H141.116M134.635 150.05H141.116M141.116 144.217V150.05M141.116 144.217H146.95M141.116 150.05H143.709C144.067 150.05 144.357 149.76 144.357 149.402V149.078C144.357 148.72 144.647 148.43 145.005 148.43H146.95M146.95 144.217V148.43M146.95 144.217H177.737M146.95 148.43H177.737M177.737 144.217V148.43M177.737 144.217H183.895M177.737 148.43H183.895M183.895 144.217V148.43M161.533 136.047V138.535M161.533 136.047L166.394 136.287M161.533 138.535L166.394 138.724M166.394 136.287V138.724M166.394 136.287L171.256 136.527M166.394 138.724L175.469 139.078M171.256 136.527V139.032M171.256 136.527L175.469 136.735M175.469 136.735V139.078M175.469 136.735L179.033 136.911M175.469 139.078L179.033 139.217M179.033 136.911V139.217" stroke="#22282D" stroke-width="0.648158" stroke-linecap="round"/>
<path d="M75.9771 165.652L77.1862 165.307C77.2441 165.29 77.304 165.282 77.3642 165.282H85.6995M75.9771 165.652V169.171M75.9771 165.652L73.3845 166.393L68.1119 167.9C67.3892 168.106 67.5384 169.171 68.29 169.171H75.9771M75.9771 169.171H85.6995M85.6995 165.282V169.171M85.6995 165.282H95.4219M85.6995 169.171H95.4219M95.4219 165.282V169.171M95.4219 165.282H114.867M95.4219 169.171H114.867M114.867 165.282V169.171M114.867 165.282H125.075M114.867 169.171H125.075M125.075 165.282H134.635C134.993 165.282 135.284 165.572 135.284 165.93V168.523C135.284 168.881 134.993 169.171 134.635 169.171H125.075M125.075 165.282V169.171" stroke="#22282D" stroke-width="0.648158"/>
<rect x="146.951" y="172.088" width="1.94448" height="2.59263" rx="0.324079" stroke="#22282D" stroke-width="0.648158"/>
<rect x="159.265" y="172.088" width="1.94448" height="2.59263" rx="0.324079" stroke="#22282D" stroke-width="0.648158"/>
<rect x="165.748" y="172.088" width="1.94448" height="2.59263" rx="0.324079" stroke="#22282D" stroke-width="0.648158"/>
<rect x="172.228" y="172.088" width="1.94448" height="2.59263" rx="0.324079" stroke="#22282D" stroke-width="0.648158"/>
<rect x="185.191" y="172.088" width="1.94448" height="2.59263" rx="0.324079" stroke="#22282D" stroke-width="0.648158"/>
<rect x="191.674" y="172.088" width="1.94448" height="2.59263" rx="0.324079" stroke="#22282D" stroke-width="0.648158"/>
<rect x="204.637" y="172.088" width="1.94448" height="2.59263" rx="0.324079" stroke="#22282D" stroke-width="0.648158"/>
<rect x="225.379" y="172.088" width="1.94448" height="2.59263" rx="0.324079" stroke="#22282D" stroke-width="0.648158"/>
<rect x="211.117" y="172.088" width="1.94448" height="2.59263" rx="0.324079" stroke="#22282D" stroke-width="0.648158"/>
<rect x="231.859" y="172.088" width="1.94448" height="2.59263" rx="0.324079" stroke="#22282D" stroke-width="0.648158"/>
<rect x="251.953" y="170.143" width="1.94448" height="1.94448" rx="0.324079" stroke="#22282D" stroke-width="0.648158"/>
<rect x="265.562" y="170.143" width="1.94448" height="1.94448" rx="0.324079" stroke="#22282D" stroke-width="0.648158"/>
<rect x="141.117" y="172.088" width="1.94448" height="2.59263" rx="0.324079" stroke="#22282D" stroke-width="0.648158"/>
<rect x="134.635" y="172.088" width="1.94448" height="2.59263" rx="0.324079" stroke="#22282D" stroke-width="0.648158"/>
<rect x="122.32" y="172.088" width="1.94448" height="2.59263" rx="0.324079" stroke="#22282D" stroke-width="0.648158"/>
<rect x="116.486" y="172.088" width="1.94448" height="2.59263" rx="0.324079" stroke="#22282D" stroke-width="0.648158"/>
<rect x="261.025" y="155.236" width="16.204" height="1.29632" rx="0.324079" stroke="#22282D" stroke-width="0.648158"/>
</g>
</svg>
