<svg xmlns="http://www.w3.org/2000/svg" width="20" height="20" viewBox="0 0 20 20" fill="none">
  <g clip-path="url(#clip0_3929_105355)">
    <path d="M14.8682 0.366141C15.4661 0.611692 16.0093 0.973488 16.4664 1.43056C16.9235 1.88762 17.2853 2.43087 17.5308 3.02881C17.7764 3.62674 17.9008 4.26747 17.8969 4.91385C17.8929 5.56023 17.7608 6.1994 17.508 6.79431C17.256 7.38731 16.8892 7.92457 16.4287 8.37517L16.4273 8.37651L8.88323 15.9103C8.25923 16.5149 7.42247 16.8498 6.55369 16.8429C5.68489 16.836 4.85362 16.4879 4.23926 15.8735C3.62491 15.2591 3.27673 14.4279 3.26987 13.5591C3.26301 12.6903 3.59801 11.8536 4.20258 11.2296L4.21408 11.2178L9.96143 5.47059C10.3697 5.06231 11.0317 5.06231 11.4399 5.47059C11.8482 5.87886 11.8482 6.54081 11.4399 6.94908L5.69939 12.6896C5.47978 12.9189 5.3582 13.2249 5.36071 13.5426C5.36324 13.8626 5.49148 14.1687 5.71776 14.395C5.94404 14.6213 6.25021 14.7495 6.57021 14.752C6.88797 14.7546 7.19407 14.6329 7.42337 14.4132L14.9608 6.8861L14.9638 6.88317C15.2283 6.62495 15.439 6.31682 15.5836 5.97661C15.7282 5.63638 15.8038 5.27083 15.806 4.90117C15.8082 4.5315 15.7371 4.16506 15.5967 3.8231C15.4562 3.48114 15.2493 3.17045 14.9879 2.90905C14.7265 2.64765 14.4158 2.44074 14.0739 2.30031C13.7319 2.15988 13.3655 2.08872 12.9958 2.09096C12.6261 2.0932 12.2606 2.1688 11.9203 2.31337C11.5801 2.45794 11.272 2.66861 11.0138 2.93316L11.0049 2.94224L3.41023 10.5368C2.99657 10.9386 2.66687 11.4186 2.44042 11.949C2.21396 12.4793 2.0952 13.0494 2.09102 13.6261C2.08685 14.2028 2.19736 14.7745 2.41612 15.3081C2.63488 15.8417 2.95753 16.3265 3.36531 16.7343C3.77309 17.142 4.25787 17.4647 4.79146 17.6835C5.32505 17.9022 5.8968 18.0127 6.47347 18.0086C7.05015 18.0044 7.62024 17.8856 8.15061 17.6592C8.68097 17.4327 9.16103 17.1031 9.56288 16.6894L9.57341 16.6786L16.6604 9.59176C17.0687 9.18348 17.7306 9.18348 18.1389 9.59176C18.5471 10 18.5471 10.662 18.1389 11.0703L11.0571 18.152C10.4633 18.7618 9.75449 19.2479 8.97168 19.5821C8.18645 19.9174 7.34239 20.0932 6.4886 20.0994C5.6348 20.1056 4.7883 19.942 3.99829 19.6181C3.20829 19.2942 2.49056 18.8165 1.88682 18.2128C1.28307 17.609 0.805375 16.8913 0.481489 16.1013C0.157603 15.3113 -0.00600866 14.4648 0.000168614 13.611C0.00634527 12.7572 0.182189 11.9131 0.517472 11.1279C0.851722 10.3451 1.33779 9.6363 1.94754 9.04248L9.52213 1.4679C9.97265 1.00758 10.5098 0.640894 11.1026 0.388983C11.6976 0.136196 12.3367 0.00401091 12.9831 8.98719e-05C13.6295 -0.0038312 14.2702 0.120591 14.8682 0.366141Z" fill="currentColor"/>
  </g>
  <defs>
    <clipPath id="clip0_3929_105355">
      <rect width="20" height="20" fill="white"/>
    </clipPath>
  </defs>
</svg>
