<svg
	xmlns="http://www.w3.org/2000/svg"
	width="20"
	height="20"
	viewBox="0 0 20 20"
	fill="none"
>
	<g clip-path="url(#clip0_3929_105248)">
		<path
			fill-rule="evenodd"
			clip-rule="evenodd"
			d="M12.2222 6.11108H3.33331C3.02648 6.11108 2.77775 6.35982 2.77775 6.66664V17.7778C2.77775 18.0846 3.02648 18.3333 3.33331 18.3333H12.2222C12.529 18.3333 12.7778 18.0846 12.7778 17.7778V6.66664C12.7778 6.35982 12.529 6.11108 12.2222 6.11108ZM3.33331 4.44442C2.10601 4.44442 1.11108 5.43934 1.11108 6.66664V17.7778C1.11108 19.0051 2.10601 20 3.33331 20H12.2222C13.4495 20 14.4444 19.0051 14.4444 17.7778V6.66664C14.4444 5.43934 13.4495 4.44442 12.2222 4.44442H3.33331Z"
			fill="currentColor"
		/>
		<path
			fill-rule="evenodd"
			clip-rule="evenodd"
			d="M7.43587 2.77775H16.6666C16.9735 2.77775 17.2222 3.02648 17.2222 3.33331V13.3333C17.2222 13.6401 16.9735 13.8889 16.6666 13.8889H16.1538V15.5555H16.6666C17.8939 15.5555 18.8889 14.5606 18.8889 13.3333V3.33331C18.8889 2.10601 17.8939 1.11108 16.6666 1.11108H7.43587C6.20857 1.11108 5.21365 2.10601 5.21365 3.33331H6.88031C6.88031 3.02648 7.12905 2.77775 7.43587 2.77775Z"
			fill="#0F0F10"
		/>
	</g>
	<defs>
		<clipPath id="clip0_3929_105248">
			<rect
				width="20"
				height="20"
				fill="white"
			/>
		</clipPath>
	</defs>
</svg>
