<svg
	xmlns="http://www.w3.org/2000/svg"
	width="20"
	height="20"
	viewBox="0 0 20 20"
	fill="none"
>
	<path
		fill-rule="evenodd"
		clip-rule="evenodd"
		d="M11.6842 1H8.31579C8.15509 1 8.00324 1.03791 7.86871 1.10526H12.1313C11.9968 1.03791 11.8449 1 11.6842 1ZM13.4734 1.10526C13.145 0.449892 12.4672 0 11.6842 0H8.31579C7.53285 0 6.85498 0.449892 6.5266 1.10526C6.39171 1.37448 6.31579 1.67838 6.31579 2V2.10526H7.31579H12.6842H13.6842V2C13.6842 1.67838 13.6083 1.37448 13.4734 1.10526ZM1.25 12.2315V16.3334C1.25 17.4379 2.14543 18.3334 3.25 18.3334H16.75C17.8546 18.3334 18.75 17.4379 18.75 16.3334V12.2314C17.5357 13.003 15.3769 14.1668 13.4027 14.1668H6.59715C4.62305 14.1668 2.46437 13.0031 1.25 12.2315ZM0 4.21053C0 3.62917 0.447715 3.15789 1 3.15789H19C19.5523 3.15789 20 3.62917 20 4.21053V10C20 10 16.5376 12.6316 13.5 12.6316H6.5C3.46243 12.6316 0 10 0 10V4.21053ZM7.36842 10.4737C7.36842 9.9214 7.81614 9.47368 8.36842 9.47368H11.6316C12.1839 9.47368 12.6316 9.9214 12.6316 10.4737V10.5789C12.6316 11.1312 12.1839 11.5789 11.6316 11.5789H8.36842C7.81614 11.5789 7.36842 11.1312 7.36842 10.5789V10.4737Z"
		fill="currentColor"
	/>
</svg>
