<svg
	xmlns="http://www.w3.org/2000/svg"
	width="20"
	height="20"
	viewBox="0 0 20 20"
	fill="none"
>
	<g clip-path="url(#clip0_3929_105366)">
		<path
			fill-rule="evenodd"
			clip-rule="evenodd"
			d="M0.219936 12.7126C0.0738141 12.8602 0 13.053 0 13.2459V17.3237C0 17.7395 0.337436 18.0769 0.753205 18.0769H4.83106C5.02388 18.0769 5.2167 18.0031 5.36433 17.857L17.857 5.36433C18.0031 5.2167 18.0769 5.02388 18.0769 4.83106V4.2074C18.0769 4.01458 18.0031 3.82176 17.857 3.67413L14.4028 0.219936C14.2552 0.0738141 14.0623 0 13.8695 0H13.2459C13.053 0 12.8602 0.0738141 12.7126 0.219936L0.219936 12.7126ZM13.5577 2.63841L2.30769 13.8884V15.7692H4.18851L15.4385 4.51923L13.5577 2.63841Z"
			fill="currentColor"
		/>
		<path
			fill-rule="evenodd"
			clip-rule="evenodd"
			d="M0 19.375C0 19.72 0.28 20 0.625 20H19.375C19.72 20 20 19.72 20 19.375V18.125C20 17.78 19.72 17.5 19.375 17.5H0.625C0.28 17.5 0 17.78 0 18.125V19.375Z"
			fill="currentColor"
		/>
	</g>
	<defs>
		<clipPath id="clip0_3929_105366">
			<rect
				width="20"
				height="20"
				fill="white"
			/>
		</clipPath>
	</defs>
</svg>
