<svg
	width="20"
	height="20"
	viewBox="0 0 20 20"
	fill="none"
	xmlns="http://www.w3.org/2000/svg"
>
	<path
		fill-rule="evenodd"
		clip-rule="evenodd"
		d="M10 20C15.5228 20 20 15.5228 20 10C20 4.47715 15.5228 0 10 0C4.47715 0 0 4.47715 0 10C0 15.5228 4.47715 20 10 20ZM11.0039 14.7969V7.51823H9.01823V14.7969H11.0039ZM10.776 4.875C10.5634 4.73611 10.3095 4.66667 10.0143 4.66667C9.71484 4.66667 9.45877 4.73611 9.24609 4.875C9.03776 5.00955 8.93359 5.26345 8.93359 5.63672C8.93359 6.00564 9.03776 6.26172 9.24609 6.40495C9.45877 6.54384 9.71484 6.61328 10.0143 6.61328C10.3095 6.61328 10.5634 6.54384 10.776 6.40495C10.9887 6.26172 11.0951 6.00564 11.0951 5.63672C11.0951 5.26345 10.9887 5.00955 10.776 4.875Z"
		fill="currentColor"
	/>
</svg>
