<svg xmlns="http://www.w3.org/2000/svg" width="20" height="19" viewBox="0 0 20 19" fill="none">
  <path fill-rule="evenodd" clip-rule="evenodd" d="M6.90699 0.442498C7.4292 0.27981 7.99118 0.299304 8.50086 0.497785L12.8914 2.20755C12.9676 2.23725 13.052 2.23886 13.1293 2.21209L16.7966 0.942629C18.3646 0.399874 20 1.56439 20 3.22363V14.7872C20 15.8159 19.348 16.7316 18.3758 17.0682L13.8061 18.65C13.2647 18.8374 12.6744 18.8261 12.1406 18.6182L7.75008 16.9085C7.67727 16.8801 7.59698 16.8773 7.52238 16.9006L3.13175 18.2684C1.57785 18.7525 0 17.5914 0 15.9639V4.37052C0 3.31398 0.687118 2.38023 1.69584 2.06597L6.90699 0.442498ZM7.75008 2.42572C7.67727 2.39737 7.59698 2.39458 7.52238 2.41782L2.31123 4.0413C2.16713 4.08619 2.06897 4.21959 2.06897 4.37052V15.9639C2.06897 16.1964 2.29437 16.3623 2.51636 16.2931L6.90699 14.9253C7.4292 14.7626 7.99118 14.7821 8.50086 14.9805L12.8914 16.6903C12.9676 16.72 13.052 16.7216 13.1293 16.6948L17.699 15.113C17.8379 15.065 17.931 14.9341 17.931 14.7872V3.22363C17.931 2.9866 17.6974 2.82024 17.4734 2.89777L13.8061 4.16723C13.2647 4.35462 12.6744 4.34337 12.1406 4.13549L7.75008 2.42572Z" fill="currentColor"/>
  <path fill-rule="evenodd" clip-rule="evenodd" d="M6.55173 16.4585L6.55173 1.28613L8.6207 1.28613L8.6207 16.4585H6.55173Z" fill="currentColor"/>
  <path fill-rule="evenodd" clip-rule="evenodd" d="M12.069 17.8379V2.66553H14.1379L14.1379 17.8379H12.069Z" fill="currentColor"/>
</svg>
